<?xml version="1.0" encoding="UTF-8"?>
<svg version="1.1" xmlns="http://www.w3.org/2000/svg" width="2048" height="2048">
<path d="M0 0 C1.84765625 0.16796875 1.84765625 0.16796875 4 1 C5.30859375 3.30078125 5.30859375 3.30078125 6.4375 6.3125 C6.85902344 7.40046875 7.28054688 8.4884375 7.71484375 9.609375 C8.13894531 10.72828125 8.56304688 11.8471875 9 13 C9.82465623 15.02438976 10.65776502 17.04536043 11.5 19.0625 C11.9125 20.05378906 12.325 21.04507812 12.75 22.06640625 C13.95709249 24.89930145 15.21522215 27.70159325 16.5 30.5 C19.15045757 36.27302788 21.58010089 42.12740996 24 48 C24.85360335 50.04190225 25.70776589 52.08357083 26.5625 54.125 C28.07871892 57.75731262 29.55918032 61.39969333 31 65.0625 C32.78094384 69.55076572 34.7741182 73.92323561 36.79296875 78.30859375 C37.8685999 80.70700754 38.85899918 83.11364106 39.8125 85.5625 C41.72593094 90.44370137 43.85649916 95.21684019 46 100 C48.81224284 106.28176793 51.51973981 112.57850443 54 119 C56.41703135 125.19675116 59.01144053 131.26654302 61.79296875 137.30859375 C62.8685999 139.70700754 63.85899918 142.11364106 64.8125 144.5625 C66.72592974 149.44369831 68.85645785 154.21686114 71 159 C73.46754878 164.51063391 75.87973117 170.02204203 78.07421875 175.6484375 C79.17689213 178.44932095 80.33677956 181.22373369 81.5 184 C83.03883365 187.67349617 84.54316175 191.35578656 86 195.0625 C87.7255371 199.40040403 89.62891518 203.63757006 91.578125 207.87890625 C95.59334157 216.69252724 99.49409875 225.5603152 103.0390625 234.57421875 C105.81446827 241.58042599 108.75457237 248.51782614 111.8359375 255.39453125 C119.26078365 272.01323052 119.26078365 272.01323052 122.0625 279.1875 C123.51126504 282.88307862 125.12658168 286.46883201 126.8125 290.0625 C129.16328859 295.0948414 131.34384935 300.16998517 133.4375 305.3125 C138.21948065 317.04948841 143.32615628 328.62233124 148.6640625 340.1171875 C151.87391762 347.04371696 154.85984049 354.04666719 157.78515625 361.09765625 C160.81933688 368.34651866 164.12652677 375.46795979 167.4375 382.59375 C170.33724417 388.9151923 173.13035277 395.27701194 175.83984375 401.68212891 C184.18680924 421.38018002 192.97696551 440.92496119 202.24804688 460.20556641 C203.73781798 463.30580082 205.17063977 466.400499 206.51953125 469.56640625 C208.04527202 473.10499765 209.74150522 476.50920644 211.5 479.9375 C213.64328953 484.15779175 215.57887369 488.33449075 217.125 492.80859375 C218.87243844 497.18499091 221.13207899 501.34521541 223.28125 505.53515625 C224.67481005 508.34444661 225.95853742 511.16197466 227.17382812 514.05151367 C228.89102955 518.10145002 230.70303448 522.10999783 232.5 526.125 C232.89058594 527.00542969 233.28117187 527.88585937 233.68359375 528.79296875 C235.58455755 533.0365344 237.58840555 537.02086916 240 541 C241.01200569 543.3281514 242.01127484 545.66186677 243 548 C244.15101043 550.32033238 245.31787058 552.6328661 246.5 554.9375 C248.35369626 558.58326189 250.17936205 562.18312602 251.5 566.0625 C253.17256245 570.9129311 255.78805045 575.28692373 258.28125 579.75390625 C260.05627289 583.10627903 261.53374182 586.50264539 263 590 C266.86497145 598.52250667 270.9096969 606.94378392 275.15893555 615.28100586 C277.2123187 619.33216081 279.09905681 623.43270114 280.92651367 627.59033203 C282.89643189 632.01223169 284.98294177 636.3788746 287.0625 640.75 C287.49626953 641.66910156 287.93003906 642.58820312 288.37695312 643.53515625 C290.41447149 647.82107769 292.4937466 651.96385573 295 656 C295.69572291 657.62335345 296.38935796 659.24767592 297.06640625 660.87890625 C298.20578837 663.46754428 299.47295685 665.97640014 300.75 668.5 C303.44643124 673.83249461 305.99392831 679.21996492 308.46386719 684.66015625 C309.89296498 687.77203783 311.41308291 690.78706657 313.125 693.75 C314.67515906 696.43694238 315.91368448 699.0693113 317.09375 701.9296875 C319.1885317 706.71518018 321.64305006 711.33980277 324 716 C324.85517557 717.70782851 325.70940996 719.41612878 326.5625 721.125 C326.96597656 721.93195312 327.36945313 722.73890625 327.78515625 723.5703125 C338.9609375 745.921875 350.13671875 768.2734375 361.3125 790.625 C361.725 791.44871094 362.1375 792.27242187 362.5625 793.12109375 C363.64989784 795.29884431 364.73267214 797.47865753 365.8125 799.66015625 C369.09033589 806.26712054 372.42017859 812.82954244 375.9375 819.3125 C378.94718755 824.87219495 381.70336889 830.5207448 384.375 836.25 C387.8242494 843.64338461 391.5020758 850.88051321 395.3371582 858.08056641 C397.98767344 863.06025988 400.56205265 868.06837281 403.0625 873.125 C405.78805121 878.63172592 408.60747781 884.07913981 411.5 889.5 C415.49646852 896.99316417 419.32607766 904.55979909 423.09326172 912.17041016 C424.47119651 914.95076646 425.86087103 917.72522358 427.25 920.5 C430 926 430 926 430.88696289 927.79150391 C433.4882463 933.0304978 436.19944492 938.2064137 438.9375 943.375 C442.37112307 949.87946937 445.75061878 956.4012566 449 963 C453.01983348 971.13320325 457.05866706 979.23630251 461.4453125 987.1796875 C466.09544829 995.61536097 470.59738181 1004.11960466 474.875 1012.75 C479.42047957 1021.91956179 484.21009565 1030.95640147 489 1040 C492.34710417 1046.32615039 495.6850174 1052.65695074 499 1059 C499.33080566 1059.63147949 499.66161133 1060.26295898 500.00244141 1060.91357422 C500.8631645 1062.56355899 501.71325688 1064.21907726 502.5625 1065.875 C503.24505859 1067.20144531 503.24505859 1067.20144531 503.94140625 1068.5546875 C505.01723972 1071.03982312 505.57451987 1073.33238303 506 1076 C506.66 1076 507.32 1076 508 1076 C508.25168945 1076.54414551 508.50337891 1077.08829102 508.76269531 1077.64892578 C509.92001179 1080.14336181 511.08493608 1082.63417369 512.25 1085.125 C512.84361328 1086.40890625 512.84361328 1086.40890625 513.44921875 1087.71875 C515.66120256 1092.43281385 518.06163202 1096.68800472 521 1101 C522.20508595 1103.32252929 523.36759019 1105.64323258 524.5 1108 C527.81544773 1114.77225177 531.36135962 1121.39635172 535 1128 C538.82958431 1134.96023082 542.54831897 1141.94743573 546.05371094 1149.07617188 C549.08692289 1155.23097241 552.28395999 1161.29553844 555.50048828 1167.35620117 C557.34905549 1170.84356111 559.17683987 1174.3345576 560.921875 1177.875 C563.46525956 1182.99726999 566.24279563 1187.99062374 569 1193 C572.08614799 1198.60701145 575.13326448 1204.21219277 577.96289062 1209.953125 C580.11228954 1214.19525318 582.45277976 1218.33672111 584.75 1222.5 C588.63810589 1229.58558072 592.42163385 1236.69815385 595.99121094 1243.94897461 C603.86815425 1259.9153687 612.30804216 1275.64334142 620.875 1291.25 C623.55145371 1296.13995326 626.15575822 1301.06612635 628.75 1306 C629.17563232 1306.80928955 629.60126465 1307.6185791 630.03979492 1308.45239258 C632.24044082 1312.64048012 634.43459585 1316.83185264 636.62109375 1321.02734375 C640.77789529 1328.98747731 644.96693555 1336.87336006 649.625 1344.5546875 C650.99247117 1346.98661065 651.97816697 1349.40734914 653 1352 C653.95213843 1353.86818998 654.93463067 1355.72104555 655.9375 1357.5625 C656.54980469 1358.68914062 657.16210938 1359.81578125 657.79296875 1360.9765625 C659.45728651 1364.01575146 661.1286964 1367.05101603 662.80078125 1370.0859375 C663.28748291 1370.96950928 663.77418457 1371.85308105 664.27563477 1372.76342773 C665.24211657 1374.5163463 666.21000317 1376.26849121 667.17944336 1378.01977539 C669.54635518 1382.30607901 671.83066343 1386.60940125 674 1391 C675.56799434 1394.04972714 677.15690794 1397.08831958 678.75 1400.125 C679.18957031 1400.96305176 679.62914062 1401.80110352 680.08203125 1402.66455078 C683.10750892 1408.39686069 686.26359017 1414.01159341 689.625 1419.5546875 C690.99247117 1421.98661065 691.97816697 1424.40734914 693 1427 C693.95213843 1428.86818998 694.93463067 1430.72104555 695.9375 1432.5625 C696.54980469 1433.68914062 697.16210938 1434.81578125 697.79296875 1435.9765625 C699.45728651 1439.01575146 701.1286964 1442.05101603 702.80078125 1445.0859375 C703.28748291 1445.96950928 703.77418457 1446.85308105 704.27563477 1447.76342773 C705.24211657 1449.5163463 706.21000317 1451.26849121 707.17944336 1453.01977539 C709.54635518 1457.30607901 711.83066343 1461.60940125 714 1466 C715.56799434 1469.04972714 717.15690794 1472.08831958 718.75 1475.125 C719.18957031 1475.96305176 719.62914062 1476.80110352 720.08203125 1477.66455078 C723.10750892 1483.39686069 726.26359017 1489.01159341 729.625 1494.5546875 C730.99175892 1496.985344 731.99435487 1499.402776 733 1502 C734.03404057 1504.09449823 735.11136259 1506.16146947 736.1953125 1508.23046875 C737 1510 737 1510 737 1512 C737.66 1512 738.32 1512 739 1512 C739.30550781 1512.63421875 739.61101562 1513.2684375 739.92578125 1513.921875 C745.34358156 1524.97113535 751.3172362 1535.73445047 757.38232422 1546.43994141 C757.82205566 1547.21901855 758.26178711 1547.9980957 758.71484375 1548.80078125 C759.10663818 1549.48954346 759.49843262 1550.17830566 759.90209961 1550.88793945 C761 1553 761 1553 761.97265625 1555.44384766 C763.04960404 1558.12342069 764.3250739 1560.57121186 765.72265625 1563.09765625 C766.25262207 1564.05816895 766.78258789 1565.01868164 767.32861328 1566.00830078 C768.95871703 1568.92610554 770.60055461 1571.83697128 772.24609375 1574.74609375 C773.30989583 1576.64322917 774.37369792 1578.54036458 775.4375 1580.4375 C775.99115234 1581.40365234 776.54480469 1582.36980469 777.11523438 1583.36523438 C777.63279297 1584.29529297 778.15035156 1585.22535156 778.68359375 1586.18359375 C779.15337646 1587.01431396 779.62315918 1587.84503418 780.10717773 1588.70092773 C781 1591 781 1591 780 1595 C776.7 1593.35 773.4 1591.7 770 1590 C770 1589.34 770 1588.68 770 1588 C769.34773438 1587.92910156 768.69546875 1587.85820313 768.0234375 1587.78515625 C763.80736576 1586.69028491 760.38122675 1584.60386338 756.625 1582.4375 C755.00441319 1581.52123822 753.38331189 1580.60588586 751.76171875 1579.69140625 C750.95653809 1579.23523926 750.15135742 1578.77907227 749.32177734 1578.30908203 C740.14985299 1573.13769839 730.83406761 1568.36883686 721.28295898 1563.93798828 C716.64689733 1561.78649869 712.06039832 1559.55730359 707.5 1557.25 C699.55103272 1553.24835588 691.46360112 1549.75490823 683.2421875 1546.35546875 C679.79342847 1544.91363817 676.36604469 1543.42670377 672.9375 1541.9375 C667.9022867 1539.77086596 662.84300749 1537.80898166 657.67578125 1535.984375 C654.9268209 1534.97307864 652.25241181 1533.84623124 649.5625 1532.6875 C643.53111216 1530.1402258 637.39104305 1528.00148858 631.20288086 1525.87451172 C624.29108495 1523.48618272 617.45769161 1520.91739018 610.625 1518.3125 C603.26264764 1515.51822884 595.98200141 1512.97366964 588.37109375 1510.9453125 C584.42081272 1509.83758595 580.56604851 1508.52091173 576.6875 1507.1875 C568.11378509 1504.25547793 559.423874 1501.81319219 550.6784668 1499.44799805 C546.27074141 1498.24614678 541.92801161 1497.03870748 537.6640625 1495.390625 C534.27486518 1494.10431983 531.03718711 1493.20359869 527.5 1492.4375 C522.64197832 1491.37330466 517.82061793 1490.22087389 513 1489 C513.79265259 1489.41511841 513.79265259 1489.41511841 514.60131836 1489.83862305 C517.0473116 1491.12044195 519.49240784 1492.40396316 521.9375 1493.6875 C523.18370117 1494.34008789 523.18370117 1494.34008789 524.45507812 1495.00585938 C529.32595708 1497.56449229 534.16229618 1500.17454373 538.96386719 1502.86108398 C541.07492232 1504.04190799 543.19290872 1505.20958026 545.3125 1506.375 C548.8505633 1508.33444825 552.33297051 1510.37606 555.8125 1512.4375 C560.86282598 1515.40827999 566.01127828 1518.04205927 571.30859375 1520.54296875 C574.17135644 1522.09276626 576.4941952 1523.93125418 579 1526 C580.65112425 1526.97124956 582.30438207 1527.93967984 583.98046875 1528.8671875 C586.3506929 1530.19671362 588.67372024 1531.59505411 591 1533 C593.83295213 1534.70917172 596.67195092 1536.39041351 599.5625 1538 C602.21987779 1539.54611071 604.71688785 1541.14441365 607.25 1542.875 C610.65235577 1545.18207686 614.12133184 1547.19361211 617.75 1549.125 C621.51677067 1551.13394436 624.71464626 1553.26220521 628 1556 C629.68066193 1556.95741777 631.36189217 1557.91386704 633.04736328 1558.86279297 C636.31413248 1560.76534497 639.43101252 1562.88456321 642.5625 1565 C643.19607422 1565.42539063 643.82964844 1565.85078125 644.48242188 1566.2890625 C645.73261978 1567.12853628 646.98214805 1567.96900831 648.23095703 1568.81054688 C649.86744871 1569.91087636 651.50965432 1571.00269481 653.15234375 1572.09375 C656.6197803 1574.41488722 660.02758525 1576.81432293 663.4375 1579.21875 C665.23571181 1580.4687265 667.04978108 1581.6960505 668.875 1582.90625 C672.91230158 1585.61124206 676.84666488 1588.44847033 680.7890625 1591.2890625 C683.52799785 1593.255787 686.27576859 1595.18384573 689.08203125 1597.0546875 C692.00926307 1599.00617538 694.85107499 1601.0441638 697.6875 1603.125 C700.43217332 1605.13700119 703.16808919 1607.11205946 706 1609 C706 1609.66 706 1610.32 706 1611 C706.69867187 1611.2371875 707.39734375 1611.474375 708.1171875 1611.71875 C711.53477618 1613.2376783 714.16630192 1615.21609271 717.125 1617.5 C720.04998988 1619.74662565 722.93097688 1621.95398459 726 1624 C726 1624.66 726 1625.32 726 1626 C726.68191406 1626.21914062 727.36382813 1626.43828125 728.06640625 1626.6640625 C731.8436354 1628.3841855 734.73988565 1630.75908299 737.9375 1633.375 C742.17794023 1636.81145644 746.43895883 1640.00159958 751 1643 C752.01801357 1643.98165594 753.0246803 1644.97591432 754 1646 C754.66 1646.33 755.32 1646.66 756 1647 C756 1647.66 756 1648.32 756 1649 C756.54527344 1649.24878906 757.09054687 1649.49757813 757.65234375 1649.75390625 C760.48376549 1651.25677403 762.97440778 1653.04660813 765.5625 1654.9375 C766.51253906 1655.62714844 767.46257812 1656.31679687 768.44140625 1657.02734375 C770.48190183 1658.60055027 772.22710794 1660.1484293 774 1662 C777.31393725 1664.78211519 777.31393725 1664.78211519 781 1667 C781 1667.66 781 1668.32 781 1669 C781.56332031 1669.25265625 782.12664062 1669.5053125 782.70703125 1669.765625 C785.32793444 1671.17653711 787.40158222 1672.84088185 789.6875 1674.75 C790.6465625 1675.54535156 791.605625 1676.34070312 792.59375 1677.16015625 C793.12871094 1677.60633301 793.66367188 1678.05250977 794.21484375 1678.51220703 C796.95540345 1680.79625665 799.70381769 1683.07074178 802.4543457 1685.34277344 C803.90763289 1686.54328049 805.35937735 1687.74565838 806.80932617 1688.95019531 C810.94968449 1692.37381279 815.15531447 1695.6282798 819.54223633 1698.73168945 C820.02329834 1699.15023193 820.50436035 1699.56877441 821 1700 C821 1700.66 821 1701.32 821 1702 C821.53109375 1702.05800781 822.0621875 1702.11601563 822.609375 1702.17578125 C826.1079856 1703.38200157 828.52609758 1705.76911155 831.25 1708.1875 C835.59953765 1711.97580699 839.96400275 1715.5832349 844.70703125 1718.87890625 C845.13371094 1719.24886719 845.56039063 1719.61882812 846 1720 C846 1720.66 846 1721.32 846 1722 C846.59917236 1722.1026416 847.19834473 1722.2052832 847.81567383 1722.31103516 C853.62689427 1724.14396956 856.9881425 1731.33422625 859.67773438 1736.4140625 C860.05220703 1737.14367188 860.42667969 1737.87328125 860.8125 1738.625 C861.40321289 1739.73101563 861.40321289 1739.73101563 862.00585938 1740.859375 C863.93200392 1744.54647159 865.49515846 1747.81229802 866 1752 C866.66 1752 867.32 1752 868 1752 C869.62605509 1754.37133033 870.87379705 1756.67754077 871.921875 1759.35546875 C873.02954339 1762.07246693 874.32613043 1764.56050374 875.75 1767.125 C876.28753906 1768.09824219 876.82507812 1769.07148437 877.37890625 1770.07421875 C877.91386719 1771.03972656 878.44882813 1772.00523438 879 1773 C879.89711009 1774.64513775 880.79293296 1776.29097805 881.6875 1777.9375 C883.64873167 1781.53912861 885.62533648 1785.13182155 887.61328125 1788.71875 C892.11931577 1796.85923072 896.58005033 1804.9879895 900.67578125 1813.34375 C902.9817528 1817.96929765 905.50140528 1822.47657007 908 1827 C909.02174679 1828.87450238 910.0425834 1830.74950118 911.0625 1832.625 C912.8616682 1835.92425389 914.67151614 1839.21690757 916.5 1842.5 C921.44847811 1851.39789439 926.24697318 1860.36522839 930.96875 1869.38500977 C934.57883803 1876.25532425 938.32083732 1883.04788205 942.08666992 1889.83374023 C945.43088608 1895.88880282 948.5655806 1902.01640764 951.5625 1908.25 C952.86775119 1910.93853771 952.86775119 1910.93853771 954.4375 1912.875 C956.27919583 1915.37970633 957.55195195 1917.98505998 958.91113281 1920.77441406 C960.82232726 1924.68079267 962.85387044 1928.52465708 964.875 1932.375 C965.31626221 1933.21571045 965.75752441 1934.0564209 966.2121582 1934.92260742 C968.84759337 1939.9106435 971.61341065 1944.7683836 974.58203125 1949.56640625 C976.65995027 1953.13264192 978.43941475 1956.83743884 980.25244141 1960.54370117 C982.66821318 1965.4393744 985.33276308 1970.1566553 988.08056641 1974.87207031 C990.8352384 1979.62928543 993.27489762 1984.50474975 995.6875 1989.44140625 C996.77298153 1991.55744911 997.89963454 1993.4864205 999.25 1995.4375 C1000.96309492 1997.94596041 1001.88783292 2000.18687149 1003 2003 C1004.15480033 2005.18128951 1005.36438661 2007.32753158 1006.578125 2009.4765625 C1008.07758257 2012.13768775 1009.54156971 2014.81618756 1011 2017.5 C1012.81921117 2020.84140828 1014.64832267 2024.17647659 1016.5 2027.5 C1016.89703125 2028.21671875 1017.2940625 2028.9334375 1017.703125 2029.671875 C1018.66324364 2031.39546147 1019.63357417 2033.1133682 1020.609375 2034.828125 C1021.15078125 2035.79234375 1021.6921875 2036.7565625 1022.25 2037.75 C1022.75015625 2038.63171875 1023.2503125 2039.5134375 1023.765625 2040.421875 C1024.98969799 2042.97848314 1025.57823405 2045.20831106 1026 2048 C1022.19359164 2047.42735449 1019.56128439 2046.35842868 1016.3125 2044.3125 C1015.44753906 2043.77625 1014.58257813 2043.24 1013.69140625 2042.6875 C1012.35916016 2041.8521875 1012.35916016 2041.8521875 1011 2041 C1005.74851258 2037.79204293 1000.5320605 2034.70456291 995 2032 C992.65327881 2030.68583613 990.32339632 2029.35423286 988 2028 C987.11183594 2027.48308594 986.22367188 2026.96617188 985.30859375 2026.43359375 C976.70258266 2021.41809576 976.70258266 2021.41809576 972.98046875 2019.203125 C966.96756372 2015.64108951 960.87978929 2012.40831519 954.60546875 2009.33203125 C951.56351216 2007.77684805 948.82261627 2005.92178129 946 2004 C942.36220082 2001.9465882 938.67939316 1999.97767382 935 1998 C930.81268168 1995.72968835 926.70406556 1993.47389028 922.75 1990.8125 C920.163445 1989.10772511 917.86566667 1988.13293799 915 1987 C912.81453088 1985.84298694 910.6644047 1984.63095274 908.51171875 1983.4140625 C905.91905383 1981.95442844 903.30580876 1980.53805552 900.6875 1979.125 C896.76332727 1976.99348556 892.90404318 1974.77684152 889.0625 1972.5 C884.07498901 1969.56693007 878.98914408 1966.94358563 873.796875 1964.39453125 C870.59309729 1962.79711695 867.47704117 1961.07814555 864.359375 1959.3203125 C861.69314666 1957.82828406 859.005079 1956.38144781 856.3125 1954.9375 C852.14171154 1952.70070713 847.98287203 1950.44480112 843.8359375 1948.1640625 C834.77142777 1943.18385913 825.70255156 1938.27872125 816.41479492 1933.72680664 C812.50993643 1931.79882372 808.73945248 1929.73063855 805 1927.5 C798.47783197 1923.60973945 791.71484331 1920.2763388 784.90136719 1916.93457031 C782.13532955 1915.57499249 779.38029631 1914.19368967 776.625 1912.8125 C773.98861568 1911.49254791 771.3521819 1910.17339109 768.70703125 1908.87109375 C764.68985417 1906.88670507 760.7054802 1904.85067844 756.75 1902.74609375 C748.30575011 1898.25449005 739.84356693 1893.91380776 731.15649414 1889.91015625 C725.68679867 1887.37169129 720.36470095 1884.6092127 715.08300781 1881.70068359 C711.14391501 1879.54505597 707.13512393 1877.74457908 703 1876 C701.09560557 1875.08001514 699.19942425 1874.14280475 697.3125 1873.1875 C696.28382812 1872.66929688 695.25515625 1872.15109375 694.1953125 1871.6171875 C692.06510417 1870.5390625 689.93489583 1869.4609375 687.8046875 1868.3828125 C686.77601562 1867.86460938 685.74734375 1867.34640625 684.6875 1866.8125 C683.76324219 1866.34457031 682.83898438 1865.87664062 681.88671875 1865.39453125 C679.80877178 1864.39070572 677.70137139 1863.44704512 675.578125 1862.54296875 C671.99010826 1860.99573446 668.5386246 1859.28302904 665.0625 1857.5 C659.64372097 1854.74460353 659.64372097 1854.74460353 654 1852.5 C648.92956011 1850.74779615 644.22771377 1848.16179694 639.46484375 1845.71875 C636.02319873 1844.01150783 632.53063124 1842.51256349 629 1841 C626.72132553 1839.8698404 624.45049395 1838.72373918 622.1875 1837.5625 C616.56533496 1834.71338957 610.89264096 1832.23043765 605 1830 C599.5033793 1827.84396118 594.05559391 1825.61989513 588.671875 1823.1953125 C585.16659483 1821.62716084 581.64529218 1820.09658731 578.125 1818.5625 C573.43900184 1816.51930052 568.76908216 1814.44983327 564.125 1812.3125 C560.08204653 1810.46172575 555.99864115 1808.78549478 551.859375 1807.1640625 C548.22598003 1805.68489351 544.64816025 1804.09065325 541.0625 1802.5 C535.64847091 1800.10495794 530.22198354 1797.91741214 524.6328125 1795.95703125 C520.72639245 1794.53704177 516.91834462 1792.89739966 513.08984375 1791.28125 C508.90238269 1789.54485654 504.67010522 1787.9364326 500.43359375 1786.32421875 C497.34475792 1785.13296125 494.27329986 1783.90743056 491.20458984 1782.66577148 C486.00989645 1780.56414622 480.82433688 1778.5423163 475.484375 1776.8359375 C472.06167968 1775.68427587 468.68978386 1774.40216088 465.3125 1773.125 C453.17228668 1768.54137767 440.95475046 1764.21540064 428.60546875 1760.2265625 C423.92561853 1758.70212793 419.38103851 1756.98139196 414.84765625 1755.0625 C411.50362252 1753.81479469 408.11393675 1752.82167968 404.69165039 1751.81201172 C400.3238021 1750.49432796 396.00919297 1749.02313908 391.6875 1747.5625 C380.45740382 1743.79618928 369.1591331 1740.31861858 357.7902832 1736.99780273 C353.86377933 1735.84957203 349.9439154 1734.68288969 346.03125 1733.48828125 C337.0854902 1730.76068468 328.1473005 1728.20191281 319.05859375 1725.99609375 C314.52204274 1724.89466345 310.01183598 1723.69802489 305.5 1722.5 C298.18827225 1720.56177301 290.86117797 1718.70018496 283.515625 1716.89453125 C281.13425417 1716.28860467 278.76405788 1715.63727786 276.40625 1714.9453125 C273.33793377 1714.09378437 270.39655099 1713.51883682 267.25 1713.0625 C263.41058828 1712.4525442 259.7319063 1711.71053878 256 1710.625 C249.77416007 1708.82925993 243.44228478 1707.64556522 237.08007812 1706.44580078 C232.58297223 1705.58265789 228.31362705 1704.5833052 224 1703 C224.33610754 1697.76135837 224.96901616 1692.8144863 226.375 1687.75 C228.62465392 1679.26715865 229.50339549 1670.56138309 230.60839844 1661.87280273 C231.01682068 1658.87660294 231.49998538 1655.89822248 231.98828125 1652.9140625 C243.82680905 1576.39345971 236.57269758 1494.24391119 215.81225586 1419.92456055 C215.01324583 1417.04769215 214.23818408 1414.16510774 213.46484375 1411.28125 C212.18168141 1406.57251757 210.74872344 1401.93583829 209.1875 1397.3125 C208.93178223 1396.55066406 208.67606445 1395.78882813 208.41259766 1395.00390625 C205.79107023 1387.26583629 202.94272511 1379.62090349 200 1372 C199.64035156 1371.06542969 199.28070312 1370.13085938 198.91015625 1369.16796875 C195.03996411 1359.29820165 190.45622357 1349.80090963 185.6484375 1340.359375 C184.51653423 1338.05265269 183.44905312 1335.71353903 182.4375 1333.3515625 C181.28288277 1330.65954733 180.07375958 1328.16276007 178.625 1325.625 C178.19058594 1324.85929687 177.75617188 1324.09359375 177.30859375 1323.3046875 C176.66083984 1322.16386719 176.66083984 1322.16386719 176 1321 C175.22898874 1319.58343016 174.45815667 1318.16676278 173.6875 1316.75 C170.85252992 1311.61615996 167.70885527 1306.67665667 164.57421875 1301.72265625 C163 1299 163 1299 163 1297 C162.34 1297 161.68 1297 161 1297 C159.6328125 1295.2421875 159.6328125 1295.2421875 158.125 1292.875 C157.33222656 1291.64716797 157.33222656 1291.64716797 156.5234375 1290.39453125 C156.02070312 1289.60433594 155.51796875 1288.81414062 155 1288 C152.28210966 1283.78256896 152.28210966 1283.78256896 149 1280 C149 1279.01 149 1278.02 149 1277 C148.40574219 1276.7525 147.81148437 1276.505 147.19921875 1276.25 C144.65050227 1274.8013512 143.52476874 1273.36758147 141.8125 1271 C138.44310805 1266.48559822 134.76467089 1262.37325408 130.91796875 1258.26171875 C129 1256 129 1256 127.98828125 1253.83203125 C126.70960247 1251.46167415 125.4099896 1251.11540411 123 1250 C121.1484375 1248.30859375 121.1484375 1248.30859375 119.375 1246.4375 C116.95478041 1243.85984611 116.95478041 1243.85984611 114 1242 C114 1241.34 114 1240.68 114 1240 C113.45085937 1239.76023437 112.90171875 1239.52046875 112.3359375 1239.2734375 C109.44914621 1237.69970178 107.13810675 1235.74389392 104.625 1233.625 C100.86183218 1230.50311177 97.12493549 1227.63293754 93 1225 C91.3738605 1223.83492213 89.74898158 1222.66808387 88.125 1221.5 C84.57820864 1219.01407927 81.0933722 1216.86054428 77.17578125 1215.0234375 C75.5317597 1214.25012754 73.90712137 1213.43542489 72.29296875 1212.6015625 C41.29248606 1196.59344955 1.91076359 1189.51541995 -32.125 1200 C-33.07632813 1200.33 -34.02765625 1200.66 -35.0078125 1201 C-38 1202 -38 1202 -41.6484375 1202.82421875 C-47.18680082 1204.17366101 -52.29746481 1206.52163009 -57.5 1208.8125 C-58.49386719 1209.23853516 -59.48773437 1209.66457031 -60.51171875 1210.10351562 C-66.34067401 1212.64838975 -71.72198965 1215.45391023 -77 1219 C-78.16982422 1219.75216797 -78.16982422 1219.75216797 -79.36328125 1220.51953125 C-89.78298896 1227.18802298 -89.78298896 1227.18802298 -99.13671875 1235.1796875 C-101 1237 -101 1237 -104 1238 C-106.48696806 1240.35943124 -108.83218996 1242.82260081 -111.1875 1245.3125 C-113 1247 -113 1247 -115 1247 C-115.268125 1247.639375 -115.53625 1248.27875 -115.8125 1248.9375 C-117 1251 -117 1251 -120 1252 C-120.2475 1252.721875 -120.495 1253.44375 -120.75 1254.1875 C-122.30140505 1257.67816137 -124.35491809 1259.18670642 -127.34375 1261.47265625 C-129.18961808 1263.17486007 -129.93873311 1264.74650137 -131 1267 C-132.16056653 1268.12740749 -133.32310145 1269.25293351 -134.5 1270.36328125 C-137.18550269 1273.29355632 -139.26779448 1276.67503153 -141.44921875 1279.98828125 C-141.96097656 1280.65214844 -142.47273437 1281.31601563 -143 1282 C-143.66 1282 -144.32 1282 -145 1282 C-145.0928125 1282.56074219 -145.185625 1283.12148437 -145.28125 1283.69921875 C-146.18591377 1286.59512615 -147.64243797 1288.41314905 -149.5 1290.8125 C-154.15026003 1297.0461819 -158.07725537 1303.60795168 -162.00097656 1310.31494141 C-163.28952779 1312.48834819 -164.65055912 1314.61400657 -166 1316.75 C-169.78356175 1323.03491646 -172.74467973 1329.74606504 -175.83203125 1336.390625 C-177.52358945 1340.02221888 -179.32157111 1343.57924537 -181.1875 1347.125 C-184.57780394 1353.82131855 -186.87150391 1360.86520778 -189.28857422 1367.953125 C-191.36122441 1373.91643975 -193.67497324 1379.80573906 -196.09375 1385.63671875 C-197.79369787 1389.73848691 -199.27124809 1393.77214643 -200.3984375 1398.0703125 C-201.4488689 1401.9980982 -202.54965384 1405.90272911 -203.71875 1409.796875 C-207.0217313 1420.81412824 -210.02504289 1431.6599237 -212 1443 C-212.47697294 1445.54207926 -212.95623733 1448.08372938 -213.4375 1450.625 C-213.67082031 1451.88610596 -213.90414062 1453.14721191 -214.14453125 1454.4465332 C-214.71952417 1457.53450918 -215.31722693 1460.61699761 -215.9309082 1463.69750977 C-229.28173774 1531.13186164 -228.71132152 1604.25792814 -215.46199036 1671.62220764 C-214.73825193 1675.34717652 -214.05701531 1679.07971448 -213.375 1682.8125 C-212.62888802 1686.82845793 -211.8491903 1690.79897752 -210.8125 1694.75 C-210 1698 -210 1698 -210 1702 C-210.52464844 1702.09796875 -211.04929687 1702.1959375 -211.58984375 1702.296875 C-217.13808518 1703.36775022 -222.63196362 1704.61509084 -228.125 1705.9375 C-233.56323334 1707.24239 -238.99069168 1708.39903238 -244.5 1709.375 C-254.7989184 1711.20964636 -264.92558696 1713.80683567 -275.08251953 1716.29199219 C-278.32981912 1717.08003979 -281.58280999 1717.84012373 -284.83862305 1718.59204102 C-293.87153225 1720.67889104 -302.83137994 1723.01422424 -311.78662109 1725.41064453 C-313.79976133 1725.94668253 -315.81575251 1726.4719846 -317.83203125 1726.99609375 C-325.83297853 1729.08518183 -333.75073585 1731.38896931 -341.66333008 1733.78881836 C-346.47027898 1735.24640338 -351.28524849 1736.65406679 -356.125 1738 C-362.21241863 1739.72191067 -368.196193 1741.69492217 -374.18798828 1743.71875 C-379.10651535 1745.37806238 -384.0397337 1746.97024447 -389 1748.5 C-396.04482708 1750.67900971 -403.04202622 1752.9852187 -410.03125 1755.3359375 C-413.62994989 1756.54574433 -417.23508862 1757.73430782 -420.84375 1758.9140625 C-431.6727844 1762.46612406 -442.36782876 1766.19654367 -452.95703125 1770.41015625 C-457.82508066 1772.34327912 -462.75502054 1774.07646509 -467.6953125 1775.81640625 C-472.12678464 1777.40356471 -476.51041844 1779.10570071 -480.8984375 1780.80859375 C-484.67145647 1782.25792723 -488.4659064 1783.64116828 -492.26953125 1785.0078125 C-499.01334777 1787.45835527 -505.647692 1790.06789398 -512.25 1792.875 C-513.92833372 1793.58475768 -515.60671909 1794.29439323 -517.28515625 1795.00390625 C-518.09227051 1795.34566895 -518.89938477 1795.68743164 -519.73095703 1796.03955078 C-522.71432207 1797.30236099 -525.69967497 1798.56027779 -528.6875 1799.8125 C-529.53699219 1800.16957031 -530.38648438 1800.52664063 -531.26171875 1800.89453125 C-533.4239009 1801.76742361 -535.5890406 1802.5879416 -537.77734375 1803.390625 C-542.23179006 1805.04983679 -546.54642104 1806.97721381 -550.875 1808.9375 C-557.19739462 1811.77407558 -563.53561418 1814.50058896 -570 1817 C-575.58089602 1819.1940496 -581.10562851 1821.45988371 -586.5703125 1823.9296875 C-590.41281337 1825.62236473 -594.30948442 1827.18305919 -598.203125 1828.75390625 C-600.95813804 1829.98134921 -603.42110048 1831.44347974 -606 1833 C-607.44340472 1833.61935184 -608.90285237 1834.20246439 -610.375 1834.75 C-616.7976387 1837.24822459 -622.98839894 1840.2230243 -629.21630859 1843.16259766 C-631.71830978 1844.33723002 -634.23276945 1845.48342334 -636.75 1846.625 C-637.62785156 1847.02332031 -638.50570313 1847.42164063 -639.41015625 1847.83203125 C-641.12416543 1848.60501578 -642.84029324 1849.37332112 -644.55859375 1850.13671875 C-650.8748603 1852.961676 -657.05687315 1856.009823 -663.23266602 1859.12597656 C-667.32786508 1861.18553324 -671.44570566 1863.12372705 -675.65625 1864.9375 C-680.02980383 1866.92017774 -684.29163683 1869.13825957 -688.5703125 1871.31640625 C-692.00277561 1873.00136252 -695.48296994 1874.50133427 -699 1876 C-700.82111946 1876.87817852 -702.63388394 1877.77391218 -704.4375 1878.6875 C-705.47648437 1879.21085937 -706.51546875 1879.73421875 -707.5859375 1880.2734375 C-709.27589844 1881.12808594 -709.27589844 1881.12808594 -711 1882 C-713.51926466 1883.27396961 -716.04003764 1884.54487297 -718.5625 1885.8125 C-719.2222583 1886.14435303 -719.8820166 1886.47620605 -720.56176758 1886.81811523 C-724.36384197 1888.71892705 -728.18550654 1890.56842759 -732.03515625 1892.37109375 C-733.30540649 1892.96603638 -733.30540649 1892.96603638 -734.60131836 1893.57299805 C-736.24193318 1894.33815274 -737.88457658 1895.09897797 -739.52954102 1895.85473633 C-743.98331124 1897.9294917 -747.95720763 1900.21310467 -752 1903 C-753.62158267 1903.71349638 -755.24510236 1904.42373333 -756.88671875 1905.08984375 C-761.69658834 1907.16137723 -766.32797405 1909.63799924 -771 1912 C-772.2721313 1912.63151871 -773.54426698 1913.26302859 -774.81640625 1913.89453125 C-779.24884578 1916.10890964 -783.62369472 1918.42717434 -788 1920.75 C-794.86201402 1924.38374374 -801.75816044 1927.92943409 -808.74804688 1931.31152344 C-811.62461636 1932.72223723 -814.30727576 1934.20552347 -816.97265625 1935.98828125 C-820.40127441 1938.26665332 -823.92347389 1940.02975338 -827.625 1941.8125 C-832.52719758 1944.21430796 -837.31232903 1946.69381888 -842 1949.5 C-847.22838088 1952.62566248 -852.59680747 1955.33066149 -858.06054688 1958.01074219 C-863.31574236 1960.60805062 -868.3642813 1963.4749011 -873.3984375 1966.48046875 C-876.21053395 1968.12296953 -879.07809805 1969.55642499 -882.0078125 1970.97265625 C-885.2926111 1972.6665818 -888.40834792 1974.63923654 -891.5625 1976.5625 C-894.28910906 1978.17050022 -897.0773674 1979.55459116 -899.92578125 1980.9296875 C-903.26029939 1982.65032398 -906.42293223 1984.64822591 -909.60546875 1986.6328125 C-912 1988 -912 1988 -914.35180664 1988.92016602 C-916.97108173 1989.98820821 -919.31847441 1991.22957115 -921.765625 1992.64453125 C-923.10173828 1993.41313477 -923.10173828 1993.41313477 -924.46484375 1994.19726562 C-925.38394531 1994.73029297 -926.30304688 1995.26332031 -927.25 1995.8125 C-929.06740527 1996.86120247 -930.88511104 1997.90938436 -932.703125 1998.95703125 C-933.58943604 1999.46838623 -934.47574707 1999.97974121 -935.38891602 2000.5065918 C-937.86674069 2001.9237824 -940.35699414 2003.31492405 -942.85546875 2004.6953125 C-946.75388486 2006.85029191 -950.5571757 2009.13357338 -954.34765625 2011.47265625 C-957.13649212 2013.07859856 -959.98197562 2014.4976999 -962.8659668 2015.92260742 C-966.42664755 2017.72026034 -969.89958828 2019.66885832 -973.375 2021.625 C-974.08527344 2022.01945312 -974.79554688 2022.41390625 -975.52734375 2022.8203125 C-979.51896929 2025.05994393 -979.51896929 2025.05994393 -983 2028 C-985.33333333 2029 -987.66666667 2030 -990 2031 C-990.66 2031.66 -991.32 2032.32 -992 2033 C-993.66666667 2033.66666667 -995.33333333 2034.33333333 -997 2035 C-999.36343812 2036.29757387 -1001.68353181 2037.62348333 -1004 2039 C-1004.8353125 2039.49113281 -1005.670625 2039.98226563 -1006.53125 2040.48828125 C-1011.45552698 2043.34579045 -1011.45552698 2043.34579045 -1016.05078125 2046.68359375 C-1018 2048 -1018 2048 -1022 2048 C-1021.43583489 2044.52451572 -1020.59208126 2041.8926326 -1018.8203125 2038.85546875 C-1018.37204102 2038.0773584 -1017.92376953 2037.29924805 -1017.46191406 2036.49755859 C-1016.97948242 2035.67336426 -1016.49705078 2034.84916992 -1016 2034 C-1014.99646859 2032.24662412 -1013.99388841 2030.49270353 -1012.9921875 2028.73828125 C-1011.42507641 2026.00866585 -1009.85629634 2023.28003284 -1008.28515625 2020.55273438 C-1005.72384567 2016.08827276 -1003.28502105 2011.61327224 -1001 2007 C-999.35863052 2003.98583567 -997.67761284 2000.99410297 -996 1998 C-995.15420049 1996.47697734 -994.30914201 1994.9535429 -993.46484375 1993.4296875 C-992.62239583 1991.91145833 -991.77994792 1990.39322917 -990.9375 1988.875 C-990.30618164 1987.73611328 -990.30618164 1987.73611328 -989.66210938 1986.57421875 C-982.69330394 1974.01956462 -982.69330394 1974.01956462 -979.875 1969.875 C-978.15280743 1967.23430473 -977.15168867 1964.91309488 -976 1962 C-975.28662116 1960.65356585 -974.55358258 1959.31748625 -973.80859375 1957.98828125 C-973.13654907 1956.78909058 -973.13654907 1956.78909058 -972.45092773 1955.56567383 C-969.4752891 1950.30385548 -966.46826742 1945.06015157 -963.4609375 1939.81640625 C-957.55216423 1929.63114992 -957.55216423 1929.63114992 -952.125 1919.1875 C-949.90687384 1914.67969522 -947.33528221 1910.3924161 -944.78515625 1906.06640625 C-942.64678463 1902.39327337 -940.62418498 1898.66554778 -938.60546875 1894.92578125 C-936.74080972 1891.52765566 -934.81076058 1888.17043384 -932.875 1884.8125 C-930.46255945 1880.62347331 -928.16417216 1876.41596376 -926.0625 1872.0625 C-924.10262615 1868.258039 -921.8725645 1864.6055983 -919.68359375 1860.9296875 C-918.56290003 1858.97952441 -917.49807919 1856.99615839 -916.4921875 1854.984375 C-915.01220598 1852.02441196 -913.38802339 1849.2131149 -911.6875 1846.375 C-908.69279828 1841.28715939 -906.00296875 1836.11032492 -903.40234375 1830.8125 C-901.40054811 1826.79775665 -899.20680256 1822.90434299 -897 1819 C-896.5771875 1818.2265625 -896.154375 1817.453125 -895.71875 1816.65625 C-893.3292345 1812.28518505 -890.7648768 1808.1473152 -888 1804 C-887.53335938 1803.06542969 -887.06671875 1802.13085938 -886.5859375 1801.16796875 C-885.09277351 1798.18531851 -883.46779631 1795.35764245 -881.75 1792.5 C-879.15596755 1788.10047745 -876.79919251 1783.65360567 -874.5625 1779.0625 C-871.62762761 1773.08038398 -868.32870654 1767.53343577 -864.78125 1761.8984375 C-862.97423244 1758.95807121 -861.40718486 1755.99130726 -859.91796875 1752.8828125 C-857.30257572 1747.51847446 -854.25048542 1742.3914138 -851.125 1737.3125 C-848.35874583 1732.74463414 -845.96521974 1728.03655198 -843.60595703 1723.24780273 C-839.86971539 1715.6735341 -835.79851549 1708.33038474 -831.5 1701.0625 C-828.56989765 1696.08003522 -825.94862448 1690.9996183 -823.40234375 1685.8125 C-821.40054811 1681.79775665 -819.20680256 1677.90434299 -817 1674 C-816.5771875 1673.2265625 -816.154375 1672.453125 -815.71875 1671.65625 C-813.87891679 1668.29070144 -812.03409421 1665.05013855 -809.875 1661.875 C-807.78102718 1658.66424167 -806.42100934 1655.55252335 -805 1652 C-804.34 1652 -803.68 1652 -803 1652 C-802.81824219 1651.40832031 -802.63648438 1650.81664062 -802.44921875 1650.20703125 C-801.03324911 1645.7558036 -799.55830438 1641.93585289 -797 1638 C-792.72590875 1630.4935315 -788.63219675 1622.87936471 -784.53125 1615.27734375 C-781.93837502 1610.4846626 -779.27761056 1605.75086244 -776.5 1601.0625 C-773.62225646 1596.16906826 -771.02554864 1591.19188905 -768.5546875 1586.08203125 C-766.94909073 1582.89907685 -765.23998286 1579.79413135 -763.49902344 1576.68383789 C-761.75035048 1573.55302977 -760.02092015 1570.41179978 -758.29296875 1567.26953125 C-757.61659013 1566.04098608 -756.94015691 1564.81247096 -756.26367188 1563.58398438 C-755.23015957 1561.70692755 -754.19695656 1559.82970421 -753.16479492 1557.9519043 C-748.78637996 1549.98761892 -744.34503443 1542.06675473 -739.79174805 1534.20092773 C-737.96117131 1530.93063321 -736.2755686 1527.61428357 -734.625 1524.25 C-729.44207247 1513.71885796 -723.62188916 1503.52836137 -717.75488281 1493.3659668 C-714.46790505 1487.67125386 -711.38050356 1481.93246204 -708.51953125 1476.01171875 C-706.92637563 1472.85407612 -705.22822951 1469.77408302 -703.5012207 1466.68823242 C-701.75197928 1463.55586987 -700.02172638 1460.41322207 -698.29296875 1457.26953125 C-697.61658933 1456.04098652 -696.94015613 1454.81247139 -696.26367188 1453.58398438 C-695.23015957 1451.70692755 -694.19695656 1449.82970421 -693.16479492 1447.9519043 C-689.40467517 1441.11229064 -685.61120114 1434.29657389 -681.71875 1427.53125 C-679.1027753 1422.9796995 -676.602753 1418.41222849 -674.3125 1413.6875 C-672.06579669 1409.12293083 -669.75127743 1404.63422471 -667.24609375 1400.20703125 C-665.80370861 1397.65233656 -664.40108397 1395.0775667 -663 1392.5 C-660.78160885 1388.42540401 -658.53921453 1384.36525685 -656.28125 1380.3125 C-654.32557336 1376.78274215 -652.40048009 1373.23643269 -650.47265625 1369.69140625 C-649.14424233 1367.26361529 -647.79446002 1364.84940072 -646.4375 1362.4375 C-644.71498241 1359.35452265 -643.11406229 1356.23480252 -641.5625 1353.0625 C-639.91550967 1349.72248544 -638.14898349 1346.53988012 -636.1875 1343.375 C-633.54873219 1339.07177864 -631.28340123 1334.65181304 -629.0625 1330.125 C-626.18246435 1324.25552564 -623.07188445 1318.61259395 -619.71875 1312.99609375 C-617.1720419 1308.55671849 -614.94687584 1303.97216967 -612.6875 1299.3828125 C-610.25834247 1294.51325133 -607.6362816 1289.75955706 -605 1285 C-604.10307852 1283.35475942 -603.20728463 1281.70890371 -602.3125 1280.0625 C-600.36412429 1276.48364145 -598.39945126 1272.91433877 -596.421875 1269.3515625 C-591.60838844 1260.66563432 -586.87438784 1251.97668085 -582.53515625 1243.04296875 C-581.11229599 1240.22259179 -579.58394503 1237.48650107 -578.00219727 1234.75268555 C-576.41372968 1231.97470533 -574.9314033 1229.14220452 -573.4375 1226.3125 C-569.62852222 1219.12311229 -565.71273678 1211.99457646 -561.76928711 1204.87817383 C-559.41875164 1200.6259766 -557.15497819 1196.35556438 -555 1192 C-553.40996771 1188.93005652 -551.79920756 1185.87110894 -550.1875 1182.8125 C-549.51557617 1181.53632813 -549.51557617 1181.53632813 -548.83007812 1180.234375 C-546.58240495 1175.97322903 -544.32048362 1171.72208338 -542 1167.5 C-539.36060712 1162.69571183 -536.80054978 1157.85182694 -534.25 1153 C-533.82130615 1152.1845874 -533.3926123 1151.3691748 -532.95092773 1150.52905273 C-530.80266914 1146.43965913 -528.65879998 1142.34800933 -526.51953125 1138.25390625 C-521.70632719 1129.05680457 -516.80007976 1119.91978943 -511.75415039 1110.84790039 C-509.41003797 1106.62185179 -507.15706729 1102.37237525 -505.01855469 1098.03881836 C-502.69886337 1093.39554363 -500.23052995 1088.8274676 -497.79882812 1084.2421875 C-495.65406594 1080.1847085 -493.55019494 1076.11397007 -491.515625 1072 C-489.0498838 1067.04154329 -486.38905876 1062.20792234 -483.6875 1057.375 C-479.91495303 1050.57503007 -476.29075133 1043.73117094 -472.86157227 1036.75219727 C-470.23549245 1031.41918291 -467.46070579 1026.17537843 -464.61254883 1020.95776367 C-462.84981706 1017.70408298 -461.29324806 1014.46825615 -460 1011 C-459.34 1011 -458.68 1011 -458 1011 C-457.62875 1009.741875 -457.2575 1008.48375 -456.875 1007.1875 C-455.31392941 1002.51154902 -453.15213149 998.42188555 -450.73046875 994.140625 C-448.74722382 990.54123691 -446.93512045 986.87592283 -445.125 983.1875 C-442.57567623 978.01883282 -439.89741233 972.98241298 -437 968 C-431.77663038 958.98892376 -427.17951179 949.69094647 -422.77734375 940.25390625 C-418.81739706 931.7651431 -414.72171044 923.55453172 -409.9765625 915.47265625 C-406.68597096 909.69136005 -403.78457242 903.71958976 -400.85791016 897.74804688 C-399.75092155 895.49248671 -398.62666219 893.24578818 -397.5 891 C-396.08322781 888.17116251 -394.67301004 885.33937695 -393.26953125 882.50390625 C-389.6065072 875.11805368 -385.85764896 867.78626071 -382 860.5 C-377.53447672 852.06332943 -373.23264659 843.55539514 -369 835 C-364.93207624 826.77859775 -360.81534858 818.59485242 -356.5 810.5 C-350.10602101 798.49372538 -344.12893999 786.32083204 -338.35986328 774.00317383 C-336.0084737 769.02027436 -333.52001379 764.14518206 -330.875 759.3125 C-328.13744377 754.30907921 -325.7285191 749.24963952 -323.5 744 C-320.6927258 737.39112546 -317.48215116 731.10771209 -314.05078125 724.8046875 C-309.25649144 715.98024817 -304.77190329 706.96885675 -300.796875 697.74609375 C-299.71804106 695.38217821 -298.34441443 693.22120645 -297 691 C-296.27302833 689.3009869 -295.54682947 687.6016314 -294.82739258 685.89941406 C-293.53780006 682.93894497 -292.08068725 680.06923381 -290.625 677.1875 C-290.32045898 676.58220459 -290.01591797 675.97690918 -289.70214844 675.35327148 C-288.31932645 672.60543989 -286.92961554 669.86111302 -285.5390625 667.1171875 C-283.71890901 663.50997421 -281.9426771 659.93836913 -280.4375 656.1875 C-278.98416019 652.96487694 -277.24568154 650.70492111 -275 648 C-261.54003986 658.19756126 -261.54003986 658.19756126 -255.5859375 663.72265625 C-253.91151166 665.22327148 -253.91151166 665.22327148 -251 666 C-249.6525286 667.31904374 -248.3212677 668.65470925 -247 670 C-245.23337158 671.36633497 -243.43994308 672.69852821 -241.625 674 C-240.66207031 674.69351563 -239.69914063 675.38703125 -238.70703125 676.1015625 C-236.60084859 677.57862566 -234.4832582 678.9969053 -232.3125 680.375 C-231.549375 680.91125 -230.78625 681.4475 -230 682 C-230 682.66 -230 683.32 -230 684 C-229.278125 684.2475 -228.55625 684.495 -227.8125 684.75 C-224.73105265 686.11953215 -222.5939755 687.85997022 -220 690 C-218.33504684 691.00285032 -216.6681822 692.00253023 -215 693 C-213.34401328 694.13110979 -211.69820806 695.27725842 -210.0625 696.4375 C-206.40869896 699.01348363 -202.73221284 701.5383277 -199 704 C-198.30132813 704.47308594 -197.60265625 704.94617188 -196.8828125 705.43359375 C-192.92857631 708.10303602 -188.96730723 710.63053131 -184.796875 712.9453125 C-182.71484282 714.16737486 -180.74220833 715.51153827 -178.75 716.875 C-174.56230746 719.70471414 -170.22459603 722.11199905 -165.76953125 724.4921875 C-162.20387025 726.43343595 -158.74051691 728.52445038 -155.26953125 730.62890625 C-150.91896814 733.25721546 -146.48558298 735.73360356 -142.0390625 738.1953125 C-138.42138943 740.20333585 -134.81572156 742.23154985 -131.21484375 744.26953125 C-120.21868608 750.48312244 -109.22311441 756.59019238 -97.85498047 762.09667969 C-94.55605927 763.70315619 -91.2798 765.35494184 -88 767 C-86.67584637 767.66158868 -85.35162764 768.3230471 -84.02734375 768.984375 C-81.26675459 770.36433202 -78.50942281 771.75056812 -75.75390625 773.140625 C-75.05201172 773.49382813 -74.35011719 773.84703125 -73.62695312 774.2109375 C-72.30578073 774.87589844 -70.98539085 775.54241782 -69.66601562 776.2109375 C-65.6498187 778.22963839 -61.58477511 780.09656465 -57.47045898 781.90625 C-52.70858311 784.01448243 -47.98258797 786.20202579 -43.25 788.375 C-42.19103516 788.86033203 -41.13207031 789.34566406 -40.04101562 789.84570312 C-35.63147406 791.86775809 -31.22254949 793.890574 -26.828125 795.9453125 C-21.94905271 798.22450354 -17.11629021 800.40835189 -12.04296875 802.21484375 C-8.42445416 803.60551571 -4.93115199 805.27887143 -1.41796875 806.9140625 C1.06168335 808.07622546 1.06168335 808.07622546 4 809 C4 808.34 4 807.68 4 807 C3.45214844 806.91492188 2.90429688 806.82984375 2.33984375 806.7421875 C-0.75703115 805.75987326 -2.85159784 804.08325601 -5.4375 802.125 C-8.13237225 800.09353858 -10.75308329 798.145757 -13.66015625 796.4296875 C-15.83769889 795.09916896 -17.23541076 793.80995144 -19 792 C-20.75108125 790.66126127 -22.52423049 789.35114235 -24.3125 788.0625 C-25.28832031 787.35867188 -26.26414062 786.65484375 -27.26953125 785.9296875 C-29.32627667 784.47613637 -31.38897945 783.05939749 -33.5 781.6875 C-35.66101389 780.22881562 -37.17748775 778.82564665 -39 777 C-40.14534636 776.07474442 -41.3081345 775.17080543 -42.484375 774.28515625 C-43.50470825 773.51244385 -43.50470825 773.51244385 -44.5456543 772.72412109 C-45.27308838 772.17578613 -46.00052246 771.62745117 -46.75 771.0625 C-53.08623783 766.25346488 -59.35044732 761.37019448 -65.54394531 756.37890625 C-68.51828258 753.9830437 -71.50028612 751.60085514 -74.51953125 749.26171875 C-81.99267867 743.47112818 -89.19961851 737.44635718 -96.3125 731.21875 C-99.86477314 728.10863744 -103.45492009 725.04567931 -107.0625 722 C-108.06410156 721.154375 -109.06570313 720.30875 -110.09765625 719.4375 C-112.11232905 717.74550024 -114.12995506 716.05770775 -116.15234375 714.375 C-122.97812803 708.68216482 -129.51454353 702.70670093 -135.98828125 696.61914062 C-138.57280513 694.19977129 -141.12443795 691.90347337 -143.92578125 689.73046875 C-144.61027344 689.15941406 -145.29476562 688.58835937 -146 688 C-146 687.34 -146 686.68 -146 686 C-146.70125 685.814375 -147.4025 685.62875 -148.125 685.4375 C-151.56593342 683.71703329 -153.19850242 681.63859001 -155.57421875 678.6796875 C-157.18083457 676.78696201 -159.00326366 675.45915348 -161 674 C-161 673.34 -161 672.68 -161 672 C-161.680625 671.835 -162.36125 671.67 -163.0625 671.5 C-166.69911697 669.6430041 -168.52210571 667.26303954 -171.10546875 664.15625 C-173.52518628 661.40226221 -176.19986048 659.08600877 -179.0078125 656.73828125 C-181.45704413 654.60120659 -183.70590533 652.30358024 -186 650 C-187.01444096 648.99424966 -188.02986423 647.98948939 -189.04614258 646.9855957 C-192.00636748 644.06074659 -194.96066164 641.12998923 -197.9128418 638.19702148 C-199.18647901 636.93353278 -200.46189176 635.67183153 -201.73901367 634.41186523 C-203.58719248 632.5878147 -205.42895096 630.75749477 -207.26953125 628.92578125 C-207.84443802 628.36119705 -208.41934479 627.79661285 -209.01167297 627.21492004 C-210.37959931 625.84738775 -211.69539653 624.42806752 -213 623 C-213 622.34 -213 621.68 -213 621 C-213.99 620.67 -214.98 620.34 -216 620 C-217.54296875 618.3984375 -217.54296875 618.3984375 -219.1875 616.375 C-222.2548738 612.74992188 -225.52835939 609.67351986 -229.13671875 606.59765625 C-235.66731898 600.99804305 -235.66731898 600.99804305 -237 597 C-238.82612375 595.14944215 -238.82612375 595.14944215 -241 593.375 C-241.721875 592.76398437 -242.44375 592.15296875 -243.1875 591.5234375 C-243.785625 591.02070312 -244.38375 590.51796875 -245 590 C-246 589 -246 589 -246.28515625 586.43359375 C-245.92073739 582.0455913 -244.40068343 578.95363482 -242.4375 575.0625 C-241.69368695 573.53661597 -240.95020295 572.0105715 -240.20703125 570.484375 C-239.83271973 569.72576172 -239.4584082 568.96714844 -239.07275391 568.18554688 C-237.54835698 565.07985702 -236.0851945 561.94895597 -234.625 558.8125 C-234.35059082 558.22533203 -234.07618164 557.63816406 -233.79345703 557.03320312 C-230.65588449 550.30251853 -227.60150398 543.53356246 -224.55126953 536.76293945 C-222.14680747 531.44510135 -219.62821863 526.21062953 -217 521 C-215.98470459 518.67328135 -214.98511802 516.3396553 -214 514 C-211.89085234 509.13503204 -209.68535147 504.32047147 -207.42431641 499.52416992 C-204.74759011 493.84337335 -202.2233066 488.16681661 -199.953125 482.30859375 C-198.9533968 479.88712094 -197.8190606 477.58144112 -196.625 475.25 C-194.00800545 470.13605652 -191.7805452 464.88823078 -189.546875 459.59765625 C-188.03186423 456.07410847 -186.43856377 452.5984976 -184.8125 449.125 C-183.27246994 445.82266749 -181.77679383 442.56056303 -180.5625 439.125 C-178.91082334 434.48457509 -176.72699663 430.08455711 -174.62182617 425.63818359 C-172.56698838 421.27620721 -170.70074729 416.87937387 -168.95703125 412.3828125 C-167.90256604 409.75740932 -166.74506885 407.19516512 -165.5625 404.625 C-162.88861496 398.81113987 -160.4339597 392.91756452 -158 387 C-155.20254933 380.19869805 -152.31844282 373.46079576 -149.25 366.77734375 C-147.05424732 361.89865576 -145.0371558 356.94646893 -143 352 C-142.16759029 349.99961541 -141.33425883 347.99961413 -140.5 346 C-139.88125 344.515 -139.88125 344.515 -139.25 343 C-129.875 320.5 -129.875 320.5 -120.5 298 C-120.08878906 297.01257813 -119.67757812 296.02515625 -119.25390625 295.0078125 C-118.40902708 292.9811553 -117.56264158 290.95512549 -116.71484375 288.9296875 C-113.68029672 281.67275851 -110.6648839 274.41048191 -107.88671875 267.05078125 C-105.30077171 260.2026544 -102.4935211 253.4989942 -99.52075195 246.81323242 C-97.45405845 242.13163135 -95.65090701 237.40579825 -93.9609375 232.57421875 C-92.57648249 228.86545513 -90.88058175 225.31767413 -89.2109375 221.73046875 C-88.05311456 219.11976476 -87.06760384 216.5073802 -86.125 213.8125 C-84.46647188 209.09985302 -82.53058697 204.56027984 -80.5 200 C-78.100579 194.60634886 -75.91198274 189.20650398 -73.95703125 183.6328125 C-72.53943053 179.73296399 -70.90295788 175.93123767 -69.2890625 172.109375 C-67.50299473 167.80116306 -65.84656714 163.44673041 -64.18359375 159.08984375 C-61.75231118 152.74283216 -59.19516225 146.45340019 -56.5625 140.1875 C-54.80236955 135.98364104 -53.12306188 131.75862945 -51.5 127.5 C-48.34484686 119.23976989 -44.93710203 111.10446188 -41.35839844 103.01977539 C-38.67471263 96.95160035 -36.1545641 90.89811892 -33.95703125 84.6328125 C-32.53843356 80.73022131 -30.9008391 76.92583934 -29.28515625 73.1015625 C-27.96703834 69.92045118 -26.72500395 66.71803547 -25.5 63.5 C-23.57742335 58.45844452 -21.54560147 53.47684875 -19.453125 48.50390625 C-16.55838671 41.52385183 -13.7837928 34.49476832 -10.98681641 27.47509766 C-9.3282875 23.3152347 -7.66385736 19.15773385 -6 15 C-5.43226442 13.58074006 -4.8645544 12.16146991 -4.296875 10.7421875 C-2.86458333 7.16145833 -1.43229167 3.58072917 0 0 Z " fill="#1692D0" transform="translate(1022,0)"/>
</svg>
