<?xml version="1.0" encoding="UTF-8"?>
<svg version="1.1" xmlns="http://www.w3.org/2000/svg" width="256" height="256">
<path d="M0 0 C24.38614029 20.7487118 40.43636592 49.7967703 44.42382812 81.67724609 C46.56591273 118.05472337 38.74201317 151.64312948 14.42382812 179.67724609 C13.72644531 180.50740234 13.0290625 181.33755859 12.31054688 182.19287109 C-8.10310603 205.83354906 -37.77787049 220.09743066 -68.57617188 223.67724609 C-102.91957542 226.0264438 -135.39563109 217.64937417 -162.22460938 195.48974609 C-164.73347039 193.27371744 -167.16192761 190.99583884 -169.57617188 188.67724609 C-170.48238281 187.83419922 -171.38859375 186.99115234 -172.32226562 186.12255859 C-179.14999412 179.58839401 -184.54042675 172.66210163 -189.57617188 164.67724609 C-190.26582031 163.59830078 -190.95546875 162.51935547 -191.66601562 161.40771484 C-207.71158036 134.95255149 -213.52980911 101.14918984 -206.67773438 70.84912109 C-197.47249382 34.6265875 -177.42546825 6.60319257 -145.515625 -13.17675781 C-135.55509 -19.06230052 -124.67774185 -23.16903007 -113.57617188 -26.32275391 C-111.88814453 -26.80421875 -111.88814453 -26.80421875 -110.16601562 -27.29541016 C-71.45466328 -36.35192893 -30.12173712 -25.27874407 0 0 Z " fill="#DF251B" transform="translate(210.576171875,30.32275390625)"/>
<path d="M0 0 C0.76570312 0.36351562 1.53140625 0.72703125 2.3203125 1.1015625 C4.17316379 1.98166686 6.02427592 2.86543118 7.875 3.75 C7.875 4.41 7.875 5.07 7.875 5.75 C7.27059082 5.60997559 6.66618164 5.46995117 6.04345703 5.32568359 C-14.69406887 0.80919182 -34.9136367 3.75168244 -53.125 14.75 C-61.74264471 20.42104495 -72.23573473 27.81381773 -76.28515625 37.53515625 C-78.125 39.75 -78.125 39.75 -80.04199219 40.09594727 C-82.52411551 40.13536677 -84.96029657 40.03578452 -87.4375 39.875 C-95.71756049 39.32674109 -95.71756049 39.32674109 -103.125 42.75 C-106.53685795 46.92071252 -107.97948511 50.98218383 -109.4375 56.125 C-111.43924008 62.65057702 -114.02674846 67.18653009 -119.125 71.75 C-119.888125 72.471875 -120.65125 73.19375 -121.4375 73.9375 C-128.14424564 78.46065404 -134.93489583 81.07476355 -142.6875 83.1875 C-151.50078464 85.63189946 -159.05084227 88.81763812 -164.12890625 96.84765625 C-168.12525949 104.47990735 -169.50272295 112.40099343 -167.65625 120.91015625 C-166.04209803 125.74300412 -163.2826557 129.74636406 -160.33203125 133.8671875 C-159.125 135.75 -159.125 135.75 -159.125 137.75 C-158.465 137.75 -157.805 137.75 -157.125 137.75 C-157.07601562 136.86957031 -157.02703125 135.98914063 -156.9765625 135.08203125 C-156.90179688 133.92058594 -156.82703125 132.75914062 -156.75 131.5625 C-156.68039063 130.41394531 -156.61078125 129.26539063 -156.5390625 128.08203125 C-156.14990426 124.95040883 -155.4440149 122.59714191 -154.125 119.75 C-151.35255902 120.87951299 -150.02995384 121.86232728 -148.0625 124.1875 C-142.8282878 128.7535149 -135.97418921 129.98575108 -129.125 129.75 C-129.6303125 129.14671875 -130.135625 128.5434375 -130.65625 127.921875 C-131.3059375 127.12265625 -131.955625 126.3234375 -132.625 125.5 C-133.2746875 124.71109375 -133.924375 123.9221875 -134.59375 123.109375 C-136.125 120.75 -136.125 120.75 -136.125 116.75 C-134.125 117.75 -132.125 118.75 -130.125 119.75 C-124.40318607 120.06787855 -118.74090124 119.96424892 -113.125 118.75 C-114.09953125 118.16992188 -114.09953125 118.16992188 -115.09375 117.578125 C-115.9290625 117.05734375 -116.764375 116.5365625 -117.625 116 C-118.87796875 115.23429687 -118.87796875 115.23429687 -120.15625 114.453125 C-120.8059375 113.89109375 -121.455625 113.3290625 -122.125 112.75 C-122.125 111.43 -122.125 110.11 -122.125 108.75 C-121.63 108.915 -121.135 109.08 -120.625 109.25 C-114.97410163 110.38017967 -109.33095383 110.35297692 -104.125 107.75 C-102.81985264 105.53223378 -102.81985264 105.53223378 -102.125 102.75 C-101.59781202 101.47309242 -101.05559327 100.20230681 -100.5 98.9375 C-100.04625 97.885625 -99.5925 96.83375 -99.125 95.75 C-98.465 95.75 -97.805 95.75 -97.125 95.75 C-97.13402344 96.39324219 -97.14304687 97.03648438 -97.15234375 97.69921875 C-96.95179188 103.81169093 -95.81744619 107.67102353 -92.5625 112.875 C-88.28602445 120.24732901 -88.384248 126.39040789 -88.97802734 134.64111328 C-89.12208041 136.70810731 -89.20383099 138.76903163 -89.26953125 140.83984375 C-89.68117391 150.1161632 -89.68117391 150.1161632 -91.28320312 152.40405273 C-93.92094086 154.3316572 -95.86523741 154.09038677 -99.10546875 154.04296875 C-100.26884766 154.03330078 -101.43222656 154.02363281 -102.63085938 154.01367188 C-103.84580078 153.98853516 -105.06074219 153.96339844 -106.3125 153.9375 C-107.53904297 153.92396484 -108.76558594 153.91042969 -110.02929688 153.89648438 C-113.06163664 153.86108741 -116.09309996 153.8117076 -119.125 153.75 C-108.43629596 165.75697754 -98.94616086 176.14288289 -82.03515625 177.76953125 C-79.90001928 177.8452906 -79.90001928 177.8452906 -77.125 176.75 C-75.68775075 174.24440531 -74.4143783 171.79315581 -73.1875 169.1875 C-72.51171875 167.79036458 -71.8359375 166.39322917 -71.16015625 164.99609375 C-70.8252417 164.29250732 -70.49032715 163.5889209 -70.14526367 162.86401367 C-69.14590394 160.79331353 -68.10406774 158.74883113 -67.0546875 156.703125 C-65.15225732 152.91175046 -63.62774134 149.04879342 -62.1875 145.0625 C-61.67102702 143.65998894 -61.15409329 142.25764748 -60.63671875 140.85546875 C-60.38325684 140.16501465 -60.12979492 139.47456055 -59.86865234 138.76318359 C-57.29906714 131.8069132 -54.59194163 124.89985895 -51.875 118 C-51.40320313 116.80117188 -51.40320313 116.80117188 -50.921875 115.578125 C-50.125 113.75 -50.125 113.75 -49.125 112.75 C-48.155625 112.688125 -47.18625 112.62625 -46.1875 112.5625 C-39.30539655 111.62789336 -33.09300851 107.42416787 -28.8125 102.0625 C-26.03293773 98.0258885 -24.23270422 93.63766165 -22.49609375 89.0703125 C-20.74921768 86.11406068 -19.39051775 85.63833994 -16.125 84.75 C-6.37091931 83.89437889 3.06586761 86.34345344 10.97265625 92.1484375 C17.19514136 97.38708 20.54905675 103.70718581 21.875 111.75 C23.23727551 134.58049904 22.05356263 157.21448589 6.5 175.25 C4.99058007 176.78244497 3.44933848 178.28432798 1.875 179.75 C1.15054688 180.43191406 0.42609375 181.11382812 -0.3203125 181.81640625 C-14.29506007 193.9199588 -34.66467126 202.85889376 -53.328125 202.8828125 C-54.79958984 202.88474609 -54.79958984 202.88474609 -56.30078125 202.88671875 C-57.82251953 202.88091797 -57.82251953 202.88091797 -59.375 202.875 C-60.37402344 202.87886719 -61.37304688 202.88273438 -62.40234375 202.88671875 C-77.15346534 202.86743624 -90.27631182 199.88423885 -104.3125 195.4375 C-105.6102781 195.02947004 -106.90813014 194.62167521 -108.20605469 194.21411133 C-111.84841305 193.06788275 -115.48707883 191.91023908 -119.125 190.75 C-120.00172363 190.4715625 -120.87844727 190.193125 -121.78173828 189.90625 C-128.39416334 187.79715148 -134.9082976 185.61129531 -141.1953125 182.64453125 C-143.19579135 181.67803828 -143.19579135 181.67803828 -145.66015625 180.87109375 C-156.24490471 176.05679453 -163.10479203 157.6603865 -167.17675781 147.23168945 C-175.553457 124.81669684 -177.25539914 93.53022051 -169.125 70.75 C-168.79556396 69.80036377 -168.79556396 69.80036377 -168.45947266 68.83154297 C-157.22697378 36.9147114 -134.28612116 11.71317139 -103.875 -2.9375 C-98.52529397 -5.41527324 -93.08453198 -7.37589773 -87.4375 -9.0625 C-86.78555664 -9.25739014 -86.13361328 -9.45228027 -85.46191406 -9.65307617 C-56.09558728 -17.89555458 -27.04400366 -12.9465975 0 0 Z " fill="#FBFBFA" transform="translate(183.125,21.25)"/>
<path d="M0 0 C24.38614029 20.7487118 40.43636592 49.7967703 44.42382812 81.67724609 C46.56591273 118.05472337 38.74201317 151.64312948 14.42382812 179.67724609 C13.72644531 180.50740234 13.0290625 181.33755859 12.31054688 182.19287109 C-8.10310603 205.83354906 -37.77787049 220.09743066 -68.57617188 223.67724609 C-102.91957542 226.0264438 -135.39563109 217.64937417 -162.22460938 195.48974609 C-164.73347039 193.27371744 -167.16192761 190.99583884 -169.57617188 188.67724609 C-170.48238281 187.83419922 -171.38859375 186.99115234 -172.32226562 186.12255859 C-179.14999412 179.58839401 -184.54042675 172.66210163 -189.57617188 164.67724609 C-190.26582031 163.59830078 -190.95546875 162.51935547 -191.66601562 161.40771484 C-207.71158036 134.95255149 -213.52980911 101.14918984 -206.67773438 70.84912109 C-197.47249382 34.6265875 -177.42546825 6.60319257 -145.515625 -13.17675781 C-135.55509 -19.06230052 -124.67774185 -23.16903007 -113.57617188 -26.32275391 C-111.88814453 -26.80421875 -111.88814453 -26.80421875 -110.16601562 -27.29541016 C-71.45466328 -36.35192893 -30.12173712 -25.27874407 0 0 Z M-174.82617188 21.55224609 C-185.94529935 35.37554537 -194.26229678 51.44219062 -198.57617188 68.67724609 C-198.84324951 69.67594727 -198.84324951 69.67594727 -199.11572266 70.69482422 C-200.89560107 78.180737 -200.88019611 85.65288716 -200.83691406 93.29882812 C-200.82622487 95.54113004 -200.83684406 97.78262517 -200.84960938 100.02490234 C-200.88051089 132.46589132 -187.04416135 160.72681513 -164.57617188 183.67724609 C-161.06413295 186.91696114 -157.42646701 189.85139421 -153.57617188 192.67724609 C-152.74472656 193.29986328 -151.91328125 193.92248047 -151.05664062 194.56396484 C-140.89754706 201.93930679 -130.46625461 206.72798967 -118.57617188 210.67724609 C-117.72667969 210.97630859 -116.8771875 211.27537109 -116.00195312 211.58349609 C-105.81861233 215.13789079 -96.6492203 215.99164838 -85.88867188 215.92724609 C-84.61572266 215.93498047 -83.34277344 215.94271484 -82.03125 215.95068359 C-65.89537793 215.91787043 -49.14830377 213.96331204 -34.57617188 206.67724609 C-33.3476928 206.10285655 -32.1184561 205.53008595 -30.88867188 204.95849609 C-1.32785289 190.99359423 20.08656574 166.1350325 31.42382812 135.67724609 C31.81127197 134.65896729 31.81127197 134.65896729 32.20654297 133.62011719 C40.40199965 111.11814074 39.82733489 77.73684243 30.42382812 55.67724609 C29.19729339 53.05382458 27.91933157 50.47512841 26.57226562 47.91162109 C25.42382812 45.67724609 25.42382812 45.67724609 23.98632812 42.11474609 C21.97609503 37.69223329 19.75393599 33.25289186 16.42382812 29.67724609 C13.82078379 28.8636627 13.82078379 28.8636627 11.42382812 28.67724609 C11.69710937 27.97857422 11.97039062 27.27990234 12.25195312 26.56005859 C12.74522797 23.44525429 12.74522797 23.44525429 10.22070312 20.66943359 C9.22017459 19.61582662 8.20379127 18.57709776 7.17382812 17.55224609 C6.41779297 16.76527344 6.41779297 16.76527344 5.64648438 15.96240234 C4.25428652 14.51904761 2.83981086 13.09727449 1.42382812 11.67724609 C0.95847656 11.07009766 0.493125 10.46294922 0.01367188 9.83740234 C-4.62940275 6.44921275 -14.06374725 8.20453193 -19.63330078 8.95410156 C-34.26585589 11.48066325 -47.17122376 18.80487517 -59.57617188 26.67724609 C-55.03837515 17.03157767 -47.53716473 7.74771629 -37.33789062 3.81396484 C-31.47299811 1.88940447 -25.72337789 1.05654178 -19.57617188 0.67724609 C-19.90617188 0.01724609 -20.23617187 -0.64275391 -20.57617188 -1.32275391 C-28.1949165 -3.56878891 -35.73744343 -3.74612766 -43.63867188 -3.94775391 C-44.88583984 -3.98642578 -46.13300781 -4.02509766 -47.41796875 -4.06494141 C-50.47056205 -4.15850748 -53.52316035 -4.24425063 -56.57617188 -4.32275391 C-51.09196686 -5.31767166 -45.88344866 -5.50630136 -40.32617188 -5.51025391 C-39.43542969 -5.5225 -38.5446875 -5.53474609 -37.62695312 -5.54736328 C-31.3895723 -5.56094248 -25.64074431 -4.76689453 -19.57617188 -3.32275391 C-19.57617188 -3.98275391 -19.57617188 -4.64275391 -19.57617188 -5.32275391 C-22.19941342 -6.57655381 -24.82466506 -7.82582643 -27.45117188 -9.07275391 C-28.17820313 -9.42080078 -28.90523437 -9.76884766 -29.65429688 -10.12744141 C-80.98993276 -34.44432156 -137.9750411 -21.21535064 -174.82617188 21.55224609 Z " fill="#231E1F" transform="translate(210.576171875,30.32275390625)"/>
<path d="M0 0 C4.56596245 1.52198748 5.85128932 4.84802983 8 9 C16.4038253 28.76713725 15.29767223 52.84510166 7.5625 72.6875 C-1.1577308 91.80492906 -16.62886223 104.49796555 -36 112 C-49.03984693 116.77196303 -61.51770664 119.35291899 -75.4375 119.25 C-76.47970703 119.25773437 -77.52191406 119.26546875 -78.59570312 119.2734375 C-106.20298158 119.20497556 -132.3511527 107.7795962 -155.0625 92.8125 C-155.69446289 92.39629395 -156.32642578 91.98008789 -156.97753906 91.55126953 C-160.31187357 89.30226001 -163.37190019 87.06065489 -166 84 C-166 83.34 -166 82.68 -166 82 C-161.87428151 82.55988658 -158.47749771 83.50022964 -154.6875 85.20703125 C-147.66286171 88.22177185 -140.49665178 90.62322429 -133.22753906 92.96704102 C-130.99988892 93.68753593 -128.77734024 94.42245711 -126.5546875 95.15820312 C-119.14940342 97.57629074 -111.97364317 99.60877308 -104.22265625 100.65161133 C-102 101 -102 101 -100 102 C-75.48237136 105.34661993 -53.5087524 102.39394796 -32 90 C-30.97132813 89.42121094 -29.94265625 88.84242188 -28.8828125 88.24609375 C-19.04196115 82.37156891 -12.01992995 75.28559074 -7 65 C-6.56945312 64.26523438 -6.13890625 63.53046875 -5.6953125 62.7734375 C4.52022543 44.69979347 2.25745232 19.9139544 0 0 Z " fill="#FA9918" transform="translate(203,120)"/>
<path d="M0 0 C-1.03898438 0.49628906 -2.07796875 0.99257813 -3.1484375 1.50390625 C-15.77229476 7.61569686 -30.81783035 14.96027016 -38.1484375 27.5 C-42.63225455 34.95203396 -42.63225455 34.95203396 -46 37 C-50.36892852 37.75106818 -54.60466903 37.27218063 -58.95654297 36.57861328 C-64.17720312 35.69670564 -64.17720312 35.69670564 -68.890625 37.82421875 C-72.12156923 42.68858478 -73.55180554 47.87986722 -75.22851562 53.43164062 C-77.822655 61.51925163 -81.75287779 68.23985606 -89 73 C-91.953125 74.30859375 -91.953125 74.30859375 -95.25 75.4375 C-96.47203125 75.85773438 -97.6940625 76.27796875 -98.953125 76.7109375 C-101.78077545 77.63251101 -104.62303473 78.47839043 -107.484375 79.2890625 C-108.23557617 79.50248291 -108.98677734 79.71590332 -109.76074219 79.93579102 C-111.21665217 80.34326168 -112.67556888 80.74018789 -114.13769531 81.12475586 C-119.87822926 82.71167574 -124.42006136 84.68860829 -127.8984375 89.77734375 C-132.87742126 100.43342275 -133.51877286 109.7839115 -130 121 C-129.34 121 -128.68 121 -128 121 C-128.103125 120.175 -128.20625 119.35 -128.3125 118.5 C-127.81275896 112.90290034 -124.91863357 108.75417926 -120.8125 105 C-119 104 -119 104 -117 104 C-116.96261719 104.61488281 -116.92523438 105.22976562 -116.88671875 105.86328125 C-116.78810547 107.07564453 -116.78810547 107.07564453 -116.6875 108.3125 C-116.62949219 109.11300781 -116.57148437 109.91351563 -116.51171875 110.73828125 C-115.89971404 113.44324864 -115.2109648 114.35568979 -113 116 C-110.89667109 116.71447643 -110.89667109 116.71447643 -109 117 C-109.06960937 115.77023438 -109.06960937 115.77023438 -109.140625 114.515625 C-109.19476563 112.89914063 -109.19476563 112.89914063 -109.25 111.25 C-109.29640625 110.18265625 -109.3428125 109.1153125 -109.390625 108.015625 C-108.91735478 104.36197888 -107.80844958 103.27771895 -105 101 C-104.1028125 102.423125 -104.1028125 102.423125 -103.1875 103.875 C-100.82283567 107.25309189 -99.34262544 108.68776152 -95.3125 109.625 C-94.1678125 109.810625 -94.1678125 109.810625 -93 110 C-93.33 109.505 -93.66 109.01 -94 108.5 C-95.46802416 104.82993959 -95.25477988 101.9490882 -95 98 C-94.34 97.34 -93.68 96.68 -93 96 C-91.03490253 96.3607567 -89.0774849 96.76375927 -87.125 97.1875 C-82.50439457 97.7136484 -82.50439457 97.7136484 -78.40869141 95.84472656 C-76.26047514 93.68196256 -74.37410157 91.35207296 -72.45825195 88.984375 C-67.15587017 82.58202639 -61.53273902 80.58790386 -53.31640625 79.71484375 C-50.875 79.625 -50.875 79.625 -47 80 C-46.34 80.66 -45.68 81.32 -45 82 C-45.74765625 82.02578125 -46.4953125 82.0515625 -47.265625 82.078125 C-48.25046875 82.13484375 -49.2353125 82.1915625 -50.25 82.25 C-51.22453125 82.29640625 -52.1990625 82.3428125 -53.203125 82.390625 C-56.6933752 83.15107057 -57.90138677 84.13026842 -60 87 C-61.50419899 93.48563721 -60.34648495 98.9230563 -56.99609375 104.55859375 C-53.46325159 111.33337519 -53.19429732 117.03175032 -53.4375 124.5625 C-53.43943359 125.70396484 -53.44136719 126.84542969 -53.44335938 128.02148438 C-53.55201953 135.06829677 -53.88832268 142.54957501 -57 149 C-60.29602791 151.18714665 -63.34243529 151.37015882 -67.25 151.625 C-68.32765625 151.69976562 -69.4053125 151.77453125 -70.515625 151.8515625 C-71.33546875 151.90054688 -72.1553125 151.94953125 -73 152 C-70.32969967 158.37905079 -66.66541806 161.56857178 -60.625 164.8125 C-57.53013633 165.82633465 -55.89583465 166.13563236 -52.7734375 166.07421875 C-51.52820313 166.04972656 -50.28296875 166.02523437 -49 166 C-43.77592658 155.07427552 -38.99261615 144.00647261 -34.375 132.8125 C-33.72687003 131.24791945 -33.07843341 129.68346588 -32.4296875 128.11914062 C-31.18581079 125.1185636 -29.94323502 122.11745478 -28.70214844 119.11572266 C-27.17119277 115.41331386 -25.6384703 111.71166153 -24.1015625 108.01171875 C-23.71564941 107.08190186 -23.32973633 106.15208496 -22.93212891 105.1940918 C-22.33026385 103.77739163 -21.68837212 102.37674425 -21 101 C-18.5234375 100.5078125 -18.5234375 100.5078125 -15.375 100.125 C-8.58430662 99.07655565 -4.24112749 97.73915583 0.25 92.25 C5.58186824 82.34795898 7.24993457 72.19207464 6 61 C4.44946819 57.25964019 2.38650758 54.24589762 0 51 C-0.69466802 49.68103883 -1.3714376 48.35171429 -2 47 C6.58963912 50.96444882 15.50223988 57.48770181 19.47265625 66.25 C19.85292969 67.3225 20.23320312 68.395 20.625 69.5 C21.89469386 73.40111553 21.89469386 73.40111553 24.72265625 76.09765625 C26.82799582 76.59573857 28.8445045 76.8197495 31 77 C37.33374097 78.11187929 41.10087266 79.50084698 45.125 84.6875 C46.10828349 86.10805011 47.07583035 87.54030158 48 89 C47.67 89.66 47.34 90.32 47 91 C46.50371094 90.52949219 46.00742188 90.05898437 45.49609375 89.57421875 C37.76857739 82.49188402 29.25200254 79.04666674 18.75 78.75 C15.14461856 78.99035876 13.12508729 79.27058276 10 81 C8.56395429 83.56615673 8.56395429 83.56615673 7.625 86.625 C4.2612297 95.34782049 -0.42165355 100.8305579 -8.77734375 105.1015625 C-11.89785554 106.3629293 -14.64861168 106.7860816 -18 107 C-18.25652344 107.68320313 -18.51304687 108.36640625 -18.77734375 109.0703125 C-21.9494591 117.42248154 -25.30283324 125.69316123 -28.70092773 133.95556641 C-29.2530896 135.29820557 -29.2530896 135.29820557 -29.81640625 136.66796875 C-30.1815332 137.55460205 -30.54666016 138.44123535 -30.92285156 139.35473633 C-31.97734054 141.94435283 -32.99930779 144.54516897 -34.01953125 147.1484375 C-35.83484906 151.6990796 -37.90278541 156.07334092 -40.125 160.4375 C-40.64513672 161.47680664 -40.64513672 161.47680664 -41.17578125 162.53710938 C-45.31772409 170.74958225 -45.31772409 170.74958225 -47.77734375 171.65234375 C-57.1276141 172.88664707 -65.19568092 169.17810561 -72.734375 163.8359375 C-79.14679259 158.63966807 -84.58348286 152.95323522 -89 146 C-87.78884521 146.01571045 -87.78884521 146.01571045 -86.55322266 146.03173828 C-82.91051318 146.07319831 -79.26785325 146.09929438 -75.625 146.125 C-74.35398438 146.14175781 -73.08296875 146.15851563 -71.7734375 146.17578125 C-70.56171875 146.18222656 -69.35 146.18867188 -68.1015625 146.1953125 C-66.98088379 146.20578613 -65.86020508 146.21625977 -64.70556641 146.22705078 C-61.85022157 146.28055323 -61.85022157 146.28055323 -60 144 C-59.38548032 140.05200095 -59.25941636 136.07976411 -59.09667969 132.08984375 C-58.99874678 129.97291018 -58.84698008 127.86368575 -58.6953125 125.75 C-58.19384046 116.50424033 -59.40003934 111.07121489 -64.44140625 103.02734375 C-66.838938 98.37048383 -66.64401015 94.10096929 -66 89 C-66.66 89 -67.32 89 -68 89 C-68.15855469 89.59167969 -68.31710938 90.18335937 -68.48046875 90.79296875 C-70.04082393 96.07748657 -71.56358561 99.45086849 -76 103 C-80.52741172 104.50913724 -85.06426798 104.77429281 -89.5 103 C-90.2425 102.505 -90.2425 102.505 -91 102 C-91 103.32 -91 104.64 -91 106 C-90.195625 106.37125 -90.195625 106.37125 -89.375 106.75 C-86.42838581 108.30084957 -83.72082434 110.08305558 -81 112 C-81 112.33 -81 112.66 -81 113 C-96.96426743 115.83809199 -96.96426743 115.83809199 -102.6875 112 C-103.450625 111.34 -104.21375 110.68 -105 110 C-102.93899471 115.31522416 -100.4371091 119.44815281 -97 124 C-104.28625822 123.72761651 -110.72973135 122.95810708 -117 119 C-119.4375 116.3125 -119.4375 116.3125 -121 114 C-121.66 113.67 -122.32 113.34 -123 113 C-123.81964132 116.92098688 -124.46246235 120.85225152 -125.0625 124.8125 C-125.23910156 125.97394531 -125.41570312 127.13539063 -125.59765625 128.33203125 C-125.73042969 129.21246094 -125.86320312 130.09289062 -126 131 C-126.66 131 -127.32 131 -128 131 C-135.42910934 121.57431753 -139.28218759 113.05905544 -138 101 C-135.88292795 91.68234758 -131.31680341 84.46105883 -123.1875 79.3125 C-118.68001594 76.98905461 -113.94268641 75.83070962 -109.0625 74.5625 C-101.92791233 72.70564234 -95.91419855 70.56594256 -90 66 C-89.34773438 65.51144531 -88.69546875 65.02289063 -88.0234375 64.51953125 C-82.26148774 59.55444688 -80.3875648 53.0295588 -78 46 C-76.04344541 40.78252109 -74.03398284 35.60622621 -68.875 32.875 C-65.18434275 31.75175649 -61.69150364 31.7464585 -57.875 31.8125 C-57.15957031 31.81314453 -56.44414063 31.81378906 -55.70703125 31.81445312 C-52.54840896 31.84102098 -50.01569338 31.99476887 -47 33 C-46.66935547 31.95585938 -46.66935547 31.95585938 -46.33203125 30.890625 C-44.67384907 27.29222378 -42.3592329 24.61981259 -39.6875 21.75 C-39.15769531 21.18079834 -38.62789063 20.61159668 -38.08203125 20.02514648 C-29.96624166 11.57715247 -12.46716396 -4.0073027 0 0 Z " fill="#692D24" transform="translate(152,28)"/>
<path d="M0 0 C4.94489003 7.41733505 5.58268557 15.19983831 5.5625 23.9375 C5.55887451 25.58032959 5.55887451 25.58032959 5.55517578 27.25634766 C5.32970135 37.34080219 3.14040279 45.85570092 -1 55 C-1.70189453 56.58167969 -1.70189453 56.58167969 -2.41796875 58.1953125 C-11.56380001 76.58944933 -28.96452635 88.0337428 -47.81640625 94.6484375 C-54.43440579 96.85495751 -61.19353666 98.48659025 -68 100 C-68.78375 100.19464844 -69.5675 100.38929688 -70.375 100.58984375 C-83.24362054 102.60056571 -96.44432098 101.00244498 -109 98 C-110.18335938 97.73316406 -111.36671875 97.46632813 -112.5859375 97.19140625 C-128.0616282 93.4148006 -151.44391569 87.55608431 -163 76 C-158.87666145 76.35855118 -155.51328515 77.1013247 -151.703125 78.7265625 C-145.45547361 81.28017969 -139.07772719 83.38853712 -132.66015625 85.46435547 C-130.63248143 86.12257141 -128.6092965 86.79349657 -126.5859375 87.46484375 C-119.54429936 89.76712825 -112.63501302 91.62778627 -105.27099609 92.63623047 C-103 93 -103 93 -101 94 C-76.48237136 97.34661993 -54.5087524 94.39394796 -33 82 C-31.97132813 81.42121094 -30.94265625 80.84242188 -29.8828125 80.24609375 C-20.04196115 74.37156891 -13.01992995 67.28559074 -8 57 C-7.35417969 55.89785156 -7.35417969 55.89785156 -6.6953125 54.7734375 C2.59214039 38.34179007 0.33417591 18.19287907 0 0 Z " fill="#672A22" transform="translate(204,128)"/>
<path d="M0 0 C1.85191503 0.51778858 1.85191503 0.51778858 3.546875 -0.09375 C6.72345349 -0.81860684 9.74532916 -0.75679472 13 -0.75 C14.24007812 -0.75257812 15.48015625 -0.75515625 16.7578125 -0.7578125 C19.875 -0.625 19.875 -0.625 21.875 0.375 C21.875 1.035 21.875 1.695 21.875 2.375 C17.255 2.705 12.635 3.035 7.875 3.375 C8.535 4.035 9.195 4.695 9.875 5.375 C8.905625 5.5709375 7.93625 5.766875 6.9375 5.96875 C-7.12364422 9.02421203 -19.50179273 14.85131467 -31.125 23.375 C-31.785 23.045 -32.445 22.715 -33.125 22.375 C-28.57829263 12.46796394 -20.44837772 2.7563722 -10.125 -1.4375 C-6.62650098 -1.76548428 -3.34665634 -0.98431069 0 0 Z " fill="#682C23" transform="translate(183.125,34.625)"/>
<path d="M0 0 C1.01876221 -0.03359619 1.01876221 -0.03359619 2.05810547 -0.06787109 C5.46354941 -0.05163435 7.1764004 0.23598572 9.90234375 2.33984375 C11.4375 4.4375 11.4375 4.4375 11.4375 6.4375 C10.30957031 6.45167969 9.18164062 6.46585938 8.01953125 6.48046875 C-12.25159065 6.99487571 -35.22201561 11.39410208 -52.5625 22.4375 C-51.14430834 18.18292502 -48.03533872 16.86213098 -44.375 14.625 C-43.65465576 14.18212646 -42.93431152 13.73925293 -42.19213867 13.28295898 C-29.0535916 5.37847898 -15.43972392 0.31881436 0 0 Z " fill="#F5773C" transform="translate(201.5625,38.5625)"/>
<path d="M0 0 C0.66 0 1.32 0 2 0 C6.17134202 7.83616393 8.6576846 14.35742099 6.453125 23.19140625 C4.43022428 29.11401004 1.45836458 34.65455074 -4 38 C-6.75078884 38.91692961 -8.35948913 39.10886083 -11.1875 39.0625 C-12.445625 39.041875 -13.70375 39.02125 -15 39 C-14.29875 38.34 -13.5975 37.68 -12.875 37 C-4.93177738 28.94426714 0.12461444 20.41891385 0.26806641 8.87915039 C0.24216239 5.91594096 0.14378921 2.95966118 0 0 Z " fill="#FB773C" transform="translate(149,86)"/>
<path d="M0 0 C1.30001953 0.00580078 2.60003906 0.01160156 3.93945312 0.01757812 C14.31074682 0.15171281 14.31074682 0.15171281 18.0625 2.4375 C16.83015625 2.55867188 15.5978125 2.67984375 14.328125 2.8046875 C-8.18272881 5.06237965 -29.03087363 8.51531136 -46.9375 23.4375 C-47.5975 23.1075 -48.2575 22.7775 -48.9375 22.4375 C-41.94426249 15.61790947 -34.56680508 10.03441953 -25.9375 5.4375 C-25.16704346 4.99849365 -24.39658691 4.5594873 -23.6027832 4.10717773 C-15.72834451 0.003679 -8.76304735 -0.22628629 0 0 Z " fill="#EE733B" transform="translate(166.9375,26.5625)"/>
<path d="M0 0 C1.36183775 4.08551325 -0.11140535 6.67611192 -1.625 10.5 C-1.90134277 11.21615479 -2.17768555 11.93230957 -2.46240234 12.67016602 C-4.7581486 18.55062577 -7.31854456 24.28616039 -10 30 C-11.07575427 32.43669173 -12.1423562 34.87706634 -13.203125 37.3203125 C-14 39 -14 39 -15 40 C-21.1081651 40.89077408 -24.21049751 38.99466785 -29.1796875 35.5078125 C-31 34 -31 34 -32 32 C-30.99839844 32.05542969 -29.99679688 32.11085937 -28.96484375 32.16796875 C-21.36812078 32.39237962 -21.36812078 32.39237962 -14.76171875 29.15234375 C-13.25264221 26.82209907 -11.99024569 24.49744322 -10.8671875 21.95898438 C-9.83976959 19.63803807 -8.73421416 17.36108308 -7.625 15.078125 C-5.63997235 10.9697591 -3.71500444 6.83762426 -1.82861328 2.68310547 C-1 1 -1 1 0 0 Z " fill="#FB763C" transform="translate(117,151)"/>
<path d="M0 0 C-4.03575525 3.59434452 -8.04711369 5.53752512 -13 7.5 C-13.74677002 7.80115723 -14.49354004 8.10231445 -15.26293945 8.41259766 C-25.47235925 12.4632457 -35.72812982 16.15737565 -46.8359375 16.09765625 C-47.89941406 16.09443359 -48.96289062 16.09121094 -50.05859375 16.08789062 C-51.15300781 16.07951172 -52.24742188 16.07113281 -53.375 16.0625 C-54.49261719 16.05798828 -55.61023438 16.05347656 -56.76171875 16.04882812 C-59.50786804 16.03709244 -62.25390586 16.02067363 -65 16 C-65 15.67 -65 15.34 -65 15 C-59.06 14.67 -53.12 14.34 -47 14 C-54.26 13.67 -61.52 13.34 -69 13 C-69 12.67 -69 12.34 -69 12 C-67.93023926 11.99383667 -67.93023926 11.99383667 -66.83886719 11.98754883 C-48.2738373 11.80130254 -31.14289409 10.31599004 -13.96875 2.84765625 C-9.40159298 0.88124142 -5.01716495 -0.3040706 0 0 Z " fill="#662B26" transform="translate(177,212)"/>
<path d="M0 0 C0.59425781 0.51433594 1.18851563 1.02867188 1.80078125 1.55859375 C1.80078125 1.88859375 1.80078125 2.21859375 1.80078125 2.55859375 C0.97835937 2.61917969 0.1559375 2.67976563 -0.69140625 2.7421875 C-7.53843775 3.25611019 -14.37117745 3.83417402 -21.19921875 4.55859375 C-21.85921875 3.56859375 -22.51921875 2.57859375 -23.19921875 1.55859375 C-19.51933669 -0.51766998 -16.32545416 -0.90085607 -12.17480469 -1.26708984 C-11.52286133 -1.32461426 -10.87091797 -1.38213867 -10.19921875 -1.44140625 C-18.21205613 -3.60513621 -25.98982844 -3.87071836 -34.26171875 -4.06640625 C-35.61786115 -4.10467596 -36.97398157 -4.14373258 -38.33007812 -4.18359375 C-41.61965979 -4.27724732 -44.90924487 -4.36297485 -48.19921875 -4.44140625 C-38.42612826 -14.21449674 -9.45734449 -7.07462317 0 0 Z " fill="#5E221C" transform="translate(200.19921875,31.44140625)"/>
<path d="M0 0 C1.17755859 0.13535156 1.17755859 0.13535156 2.37890625 0.2734375 C4.4375 0.625 4.4375 0.625 6.4375 1.625 C7.97418865 1.84967831 9.51718054 2.03296805 11.0625 2.1875 C11.87976563 2.27128906 12.69703125 2.35507813 13.5390625 2.44140625 C14.16554688 2.50199219 14.79203125 2.56257812 15.4375 2.625 C15.4375 2.955 15.4375 3.285 15.4375 3.625 C23.0275 3.955 30.6175 4.285 38.4375 4.625 C38.4375 4.955 38.4375 5.285 38.4375 5.625 C36.7875 5.955 35.1375 6.285 33.4375 6.625 C33.9325 7.615 33.9325 7.615 34.4375 8.625 C17.51036765 9.09327108 2.83414415 7.00364929 -13.5625 2.625 C-9.8125 1.5 -9.8125 1.5 -7.5625 2.625 C-7.5625 1.965 -7.5625 1.305 -7.5625 0.625 C-4.51490395 -0.39086535 -3.11156747 -0.37933442 0 0 Z " fill="#743927" transform="translate(96.5625,220.375)"/>
<path d="M0 0 C5.18742104 7.78113157 5.44647124 15.67566126 5.3125 24.8125 C5.31572266 25.93076172 5.31894531 27.04902344 5.32226562 28.20117188 C5.26297543 37.18633178 5.26297543 37.18633178 3 41 C1.68 41 0.36 41 -1 41 C-0.9285376 40.4652002 -0.8570752 39.93040039 -0.78344727 39.37939453 C0.17905278 31.21369547 0.11244227 23.08060989 0.0625 14.875 C0.05747252 13.42708489 0.05291183 11.97916808 0.04882812 10.53125 C0.03792705 7.02079741 0.02073202 3.51040993 0 0 Z " fill="#77433B" transform="translate(204,128)"/>
<path d="M0 0 C0.33 0.66 0.66 1.32 1 2 C1.66 2.33 2.32 2.66 3 3 C2.278125 3.598125 1.55625 4.19625 0.8125 4.8125 C-5.9330157 11.63488768 -7.80282244 20.73265467 -8 30 C-8.33 30 -8.66 30 -9 30 C-9 27.69 -9 25.38 -9 23 C-9.66 23 -10.32 23 -11 23 C-11.33 25.64 -11.66 28.28 -12 31 C-12.33 31 -12.66 31 -13 31 C-13.71035438 20.79852188 -12.14911533 12.30877599 -5.375 4.375 C-3.59573595 2.47142056 -2.32897539 1.1644877 0 0 Z " fill="#7A423A" transform="translate(27,109)"/>
<path d="M0 0 C0.33 0.66 0.66 1.32 1 2 C1.66 2 2.32 2 3 2 C3.12117188 2.556875 3.24234375 3.11375 3.3671875 3.6875 C4.49330078 8.81564662 5.70485307 13.91192278 7 19 C7.66 19 8.32 19 9 19 C9 20.98 9 22.96 9 25 C9.33 23.35 9.66 21.7 10 20 C10.33 20 10.66 20 11 20 C11 22.97 11 25.94 11 29 C10.34 29 9.68 29 9 29 C7.56956685 27.13955934 6.22896464 25.20946359 4.9375 23.25 C4.22464844 22.18265625 3.51179688 21.1153125 2.77734375 20.015625 C-0.04664148 15.22415995 -0.11793419 11.79341918 -0.0625 6.25 C-0.05347656 5.07953125 -0.04445313 3.9090625 -0.03515625 2.703125 C-0.02355469 1.81109375 -0.01195312 0.9190625 0 0 Z " fill="#64261E" transform="translate(15,130)"/>
<path d="M0 0 C0.495 0.495 0.495 0.495 1 1 C2.32594105 1.36162029 3.65938457 1.69728039 5 2 C3.62708132 2.48509793 2.25153297 2.96275513 0.875 3.4375 C0.10929687 3.70433594 -0.65640625 3.97117188 -1.4453125 4.24609375 C-6.23350526 5.65912311 -10.85723113 6.12442349 -15.8359375 6.09765625 C-16.89941406 6.09443359 -17.96289062 6.09121094 -19.05859375 6.08789062 C-20.15300781 6.07951172 -21.24742188 6.07113281 -22.375 6.0625 C-23.49261719 6.05798828 -24.61023438 6.05347656 -25.76171875 6.04882812 C-28.50786804 6.03709244 -31.25390586 6.02067363 -34 6 C-34 5.67 -34 5.34 -34 5 C-28.06 4.67 -22.12 4.34 -16 4 C-23.26 3.67 -30.52 3.34 -38 3 C-38 2.67 -38 2.34 -38 2 C-37.20827393 1.97494385 -36.41654785 1.9498877 -35.60083008 1.92407227 C-32.00456637 1.80784271 -28.4085472 1.68523824 -24.8125 1.5625 C-23.56662109 1.52318359 -22.32074219 1.48386719 -21.03710938 1.44335938 C-19.83505859 1.40146484 -18.63300781 1.35957031 -17.39453125 1.31640625 C-16.28956299 1.27974854 -15.18459473 1.24309082 -14.04614258 1.20532227 C-9.24555389 0.88174327 -4.85686403 -0.22076655 0 0 Z " fill="#5E1C19" transform="translate(146,222)"/>
<path d="M0 0 C6.48292295 -0.3669579 6.48292295 -0.3669579 8.9375 1.375 C10 3 10 3 10 5 C7.69 5.33 5.38 5.66 3 6 C2.01 8.97 1.02 11.94 0 15 C-0.66 15 -1.32 15 -2 15 C-2.2475 15.804375 -2.495 16.60875 -2.75 17.4375 C-4 20 -4 20 -6.125 20.8125 C-6.74375 20.874375 -7.3625 20.93625 -8 21 C-6.18117084 13.72468335 -3.35291657 6.70583315 0 0 Z " fill="#6F281F" transform="translate(131,129)"/>
<path d="M0 0 C1.28589593 3.85768778 0.43749924 5.04706974 -1.08984375 8.76171875 C-1.54423828 9.87998047 -1.99863281 10.99824219 -2.46679688 12.15039062 C-2.95212891 13.31763672 -3.43746094 14.48488281 -3.9375 15.6875 C-4.65969727 17.45577148 -4.65969727 17.45577148 -5.39648438 19.25976562 C-6.58925776 22.17674608 -7.79072299 25.0898314 -9 28 C-9.33 27.01 -9.66 26.02 -10 25 C-9.67 24.34 -9.34 23.68 -9 23 C-10.98 23.99 -10.98 23.99 -13 25 C-11.33846988 19.14340094 -9.52958084 13.5409866 -7 8 C-6.01 8 -5.02 8 -4 8 C-3.67 7.34 -3.34 6.68 -3 6 C-2 4 -1 2 0 0 Z " fill="#6C3128" transform="translate(129,142)"/>
<path d="M0 0 C0.66 0 1.32 0 2 0 C2 5.28 2 10.56 2 16 C-3.94 18.475 -3.94 18.475 -10 21 C-8.58734081 18.17468163 -7.13752161 15.47807481 -5.5625 12.75 C-3.24022224 8.60700151 -1.5494499 4.48524971 0 0 Z " fill="#742D23" transform="translate(90,71)"/>
<path d="M0 0 C0.89074219 -0.020625 1.78148437 -0.04125 2.69921875 -0.0625 C9.1821363 -0.10013668 14.65419707 1.0689329 20.75 3.25 C16.9643643 4.51187857 13.51317551 4.26657797 9.58203125 4.12890625 C8.78721848 4.10529526 7.9924057 4.08168427 7.17350769 4.05735779 C4.63631901 3.98081899 2.0994431 3.89675272 -0.4375 3.8125 C-2.15818785 3.75926951 -3.87889094 3.70652917 -5.59960938 3.65429688 C-9.81660411 3.52521711 -14.03333385 3.38938609 -18.25 3.25 C-13.85315462 -1.14684538 -5.889053 0.03350813 0 0 Z " fill="#5C201B" transform="translate(170.25,23.75)"/>
<path d="M0 0 C0.33 0 0.66 0 1 0 C1.1953125 2.05078125 1.390625 4.1015625 1.5859375 6.15234375 C1.72257812 6.76207031 1.85921875 7.37179688 2 8 C2.66 8.33 3.32 8.66 4 9 C4.19818283 15.70518586 4.30844801 21.65176798 2 28 C1.34 27.67 0.68 27.34 0 27 C-1.51901188 21.45151349 -0.89695799 15.79925277 -0.5625 10.125 C-0.51029297 9.15046875 -0.45808594 8.1759375 -0.40429688 7.171875 C-0.27536992 4.78086598 -0.14044056 2.39035574 0 0 Z " fill="#6E3229" transform="translate(94,145)"/>
<path d="M0 0 C0 0.66 0 1.32 0 2 C-0.63502441 2.05534912 -1.27004883 2.11069824 -1.92431641 2.16772461 C-4.82476151 2.42190369 -7.72487719 2.67967067 -10.625 2.9375 C-11.62402344 3.02451172 -12.62304688 3.11152344 -13.65234375 3.20117188 C-18.47482126 3.63232053 -23.23730947 4.09785214 -28 5 C-21.98641895 -1.64658959 -7.95478118 -3.97739059 0 0 Z " fill="#D1C7C6" transform="translate(205,35)"/>
<path d="M0 0 C4.77495151 1.69524906 8.98698778 4.15237336 13.3125 6.75 C14.42334961 7.37648437 14.42334961 7.37648437 15.55664062 8.015625 C17.57025907 9.23307541 19.3242018 10.34668413 21 12 C21.48046875 15.328125 21.48046875 15.328125 21 18 C15.30374839 14.59087972 10.31180318 10.6672375 5.4375 6.1875 C4.90092773 5.69531982 4.36435547 5.20313965 3.81152344 4.69604492 C2.51787772 3.48834805 1.25565143 2.24715295 0 1 C0 0.67 0 0.34 0 0 Z " fill="#D11F1B" transform="translate(42,209)"/>
<path d="M0 0 C0.33 0 0.66 0 1 0 C1 9.57 1 19.14 1 29 C0.01 29 -0.98 29 -2 29 C-2.19538118 19.13325025 -2.38222795 9.65653116 0 0 Z " fill="#2F2D2E" transform="translate(9,109)"/>
<path d="M0 0 C1.53754309 3.98690723 0.43339347 7.54153148 -0.42578125 11.55859375 C-2.28435211 21.10260105 -2.34426715 30.3735016 -2.1875 40.0625 C-2.17239456 41.71938859 -2.15871672 43.37629083 -2.14648438 45.03320312 C-2.11401434 49.022484 -2.06257251 53.01108248 -2 57 C-2.33 57 -2.66 57 -3 57 C-4.28845472 50.13818427 -4.28365256 43.33557729 -4.3125 36.375 C-4.31644775 35.68824188 -4.32039551 35.00148376 -4.32446289 34.29391479 C-4.35613171 22.4898787 -3.04251184 11.42300204 0 0 Z " fill="#110A0D" transform="translate(4,92)"/>
<path d="M0 0 C3.68754757 0.49831724 5.60490662 1.10067643 8 4 C1.97403427 5.0712828 -3.88909517 5.09945415 -10 5 C-10 4.01 -10 3.02 -10 2 C-6.7 1.67 -3.4 1.34 0 1 C0 0.67 0 0.34 0 0 Z " fill="#6C332D" transform="translate(63,137)"/>
<path d="M0 0 C3.875 0.875 3.875 0.875 5 2 C5.1875 4.4375 5.1875 4.4375 5 7 C4.34 7.66 3.68 8.32 3 9 C1 8.875 1 8.875 -1 8 C-2.25 5.9375 -2.25 5.9375 -3 4 C-2.01 2.68 -1.02 1.36 0 0 Z " fill="#F0C350" transform="translate(33,190)"/>
<path d="M0 0 C3.53571429 0.53571429 3.53571429 0.53571429 5 2 C5.1875 4.4375 5.1875 4.4375 5 7 C4.34 7.66 3.68 8.32 3 9 C-0.53571429 8.46428571 -0.53571429 8.46428571 -2 7 C-2.1875 4.5625 -2.1875 4.5625 -2 2 C-1.34 1.34 -0.68 0.68 0 0 Z " fill="#F7C741" transform="translate(75,144)"/>
<path d="M0 0 C1.33597652 0.80814651 2.668725 1.62163181 4 2.4375 C4.7425 2.88996094 5.485 3.34242187 6.25 3.80859375 C7.11625 4.39833984 7.11625 4.39833984 8 5 C8 5.33 8 5.66 8 6 C2.06 6 -3.88 6 -10 6 C-10 5.67 -10 5.34 -10 5 C-5.545 4.505 -5.545 4.505 -1 4 C-5.455 3.01 -5.455 3.01 -10 2 C-10 1.67 -10 1.34 -10 1 C-3.375 0.875 -3.375 0.875 0 2 C0 1.34 0 0.68 0 0 Z " fill="#793226" transform="translate(191,26)"/>
<path d="M0 0 C1.2065625 0.0309375 1.2065625 0.0309375 2.4375 0.0625 C2.6875 5.6875 2.6875 5.6875 0.4375 9.0625 C-0.5525 9.0625 -1.5425 9.0625 -2.5625 9.0625 C-4.5625 6.0625 -4.5625 6.0625 -4.25 3.4375 C-3.27807854 0.07995314 -3.27807854 0.07995314 0 0 Z " fill="#FADD8B" transform="translate(35.5625,168.9375)"/>
<path d="M0 0 C3.875 0.875 3.875 0.875 5 2 C5.04080783 3.99958364 5.04254356 6.00045254 5 8 C3.35 8.33 1.7 8.66 0 9 C-2 6 -2 6 -1.6875 3.9375 C-1 2 -1 2 0 0 Z " fill="#F8CB54" transform="translate(54,157)"/>
<path d="M0 0 C1.32 0 2.64 0 4 0 C4.33 2.31 4.66 4.62 5 7 C2.625 7.625 2.625 7.625 0 8 C-0.66 7.34 -1.32 6.68 -2 6 C-1.44444444 1.44444444 -1.44444444 1.44444444 0 0 Z " fill="#F7C842" transform="translate(44,180)"/>
<path d="M0 0 C1.2065625 0.0309375 1.2065625 0.0309375 2.4375 0.0625 C3.0625 2.9375 3.0625 2.9375 3.4375 6.0625 C2.7775 6.7225 2.1175 7.3825 1.4375 8.0625 C-2.09821429 7.52678571 -2.09821429 7.52678571 -3.5625 6.0625 C-3.6875 3.5625 -3.6875 3.5625 -3.5625 1.0625 C-2.5625 0.0625 -2.5625 0.0625 0 0 Z " fill="#F7C73F" transform="translate(45.5625,168.9375)"/>
<path d="M0 0 C1.2065625 0.0309375 1.2065625 0.0309375 2.4375 0.0625 C3.0625 2.9375 3.0625 2.9375 3.4375 6.0625 C2.7775 6.7225 2.1175 7.3825 1.4375 8.0625 C-2.09821429 7.52678571 -2.09821429 7.52678571 -3.5625 6.0625 C-3.6875 3.5625 -3.6875 3.5625 -3.5625 1.0625 C-2.5625 0.0625 -2.5625 0.0625 0 0 Z " fill="#F7C641" transform="translate(45.5625,157.9375)"/>
<path d="M0 0 C0.66 0 1.32 0 2 0 C2 0.99 2 1.98 2 3 C2.66 2.34 3.32 1.68 4 1 C3.39644592 4.85025879 2.23227397 7.86101159 0.4375 11.3125 C-0.01753906 12.19550781 -0.47257812 13.07851562 -0.94140625 13.98828125 C-1.29074219 14.65214844 -1.64007813 15.31601563 -2 16 C-3.33738519 13.32522961 -2.95141191 11.52855477 -2.6875 8.5625 C-2.60886719 7.59441406 -2.53023438 6.62632812 -2.44921875 5.62890625 C-2 3 -2 3 0 0 Z " fill="#64241C" transform="translate(112,176)"/>
<path d="M0 0 C9.24 0 18.48 0 28 0 C28 0.66 28 1.32 28 2 C20.41 2.33 12.82 2.66 5 3 C4.67 3.99 4.34 4.98 4 6 C2.68 4.02 1.36 2.04 0 0 Z " fill="#5B120E" transform="translate(63,174)"/>
<path d="M0 0 C1.32 0.66 2.64 1.32 4 2 C4 3.98 4 5.96 4 8 C2.34385343 8.38218767 0.67542976 8.71395102 -1 9 C-2 8 -2 8 -2.1875 5.0625 C-2 2 -2 2 0 0 Z " fill="#F8C842" transform="translate(55,168)"/>
<path d="M0 0 C14.19 0 28.38 0 43 0 C43 0.33 43 0.66 43 1 C38.56155634 1.85491828 34.36102269 2.12866713 29.84375 2.1328125 C28.8457135 2.13424759 28.8457135 2.13424759 27.82751465 2.13571167 C26.42911687 2.13638827 25.03071586 2.13457047 23.63232422 2.13037109 C21.50611234 2.1250154 19.38011166 2.13033375 17.25390625 2.13671875 C15.88802037 2.13605788 14.52213463 2.13477652 13.15625 2.1328125 C11.31256836 2.13112061 11.31256836 2.13112061 9.43164062 2.12939453 C6.19835436 2.00747921 3.17348112 1.6112654 0 1 C0 0.67 0 0.34 0 0 Z " fill="#141010" transform="translate(107,254)"/>
<path d="M0 0 C0.33 0.66 0.66 1.32 1 2 C1.66 2.33 2.32 2.66 3 3 C1.15993854 6.81155589 -0.78458761 10.18651416 -4 13 C-4.66 13 -5.32 13 -6 13 C-3.69411765 4.6 -3.69411765 4.6 -2 1 C-1.34 0.67 -0.68 0.34 0 0 Z " fill="#6D3229" transform="translate(129,137)"/>
<path d="M0 0 C-2.84759727 3.04398329 -4.69846555 4.88998401 -9.04296875 5.09765625 C-9.75066406 5.08605469 -10.45835937 5.07445312 -11.1875 5.0625 C-13.0746875 5.0315625 -13.0746875 5.0315625 -15 5 C-15 4.01 -15 3.02 -15 2 C-9.87080814 -0.10428384 -5.4389165 -0.21755666 0 0 Z " fill="#62231C" transform="translate(149,128)"/>
<path d="M0 0 C0 0.66 0 1.32 0 2 C-1.27875 1.690625 -2.5575 1.38125 -3.875 1.0625 C-11.81252288 -0.55482764 -19.92785039 -0.66585873 -28 -1 C-28 -1.33 -28 -1.66 -28 -2 C-24.9378174 -2.19533059 -21.87553679 -2.38153284 -18.8125 -2.5625 C-17.51602539 -2.64661133 -17.51602539 -2.64661133 -16.19335938 -2.73242188 C-10.15843957 -3.07925635 -5.39816873 -2.99898263 0 0 Z " fill="#C8BFBD" transform="translate(191,25)"/>
<path d="M0 0 C4.21463682 6.32195523 4.14716865 10.92381361 3.625 18.3125 C3.56828125 19.24384766 3.5115625 20.17519531 3.453125 21.13476562 C3.31224774 23.42402103 3.16090171 25.7120794 3 28 C2.67 28 2.34 28 2 28 C1.93941406 26.90042969 1.87882813 25.80085938 1.81640625 24.66796875 C1.35284836 16.42932327 0.8335523 8.21137689 0 0 Z " fill="#591411" transform="translate(204,128)"/>
<path d="M0 0 C0.66 0.33 1.32 0.66 2 1 C1.73445313 1.51949219 1.46890625 2.03898437 1.1953125 2.57421875 C-0.70698097 6.33020694 -2.51959705 10.05225879 -4 14 C-4.66 14 -5.32 14 -6 14 C-6.33 14.99 -6.66 15.98 -7 17 C-6.96586242 9.62628201 -4.87106829 5.46691762 0 0 Z " fill="#64231C" transform="translate(23,112)"/>
<path d="M0 0 C1.32830615 3.98491845 0.23204404 5.40048548 -1.4375 9.1875 C-1.91058594 10.27417969 -2.38367188 11.36085937 -2.87109375 12.48046875 C-3.24363281 13.31191406 -3.61617188 14.14335937 -4 15 C-4.33 14.01 -4.66 13.02 -5 12 C-4.67 11.34 -4.34 10.68 -4 10 C-5.98 10.99 -5.98 10.99 -8 12 C-7.01 8.7 -6.02 5.4 -5 2 C-4.34 3.32 -3.68 4.64 -3 6 C-2.01 4.02 -1.02 2.04 0 0 Z " fill="#682018" transform="translate(124,155)"/>
<path d="M0 0 C3.3 0 6.6 0 10 0 C10.33 0.99 10.66 1.98 11 3 C9.5 4.125 9.5 4.125 7 5 C4.2226918 4.57598348 1.70360217 3.81108065 -1 3 C-0.67 2.01 -0.34 1.02 0 0 Z " fill="#6C352E" transform="translate(97,60)"/>
<path d="M0 0 C0 3.60573896 -0.81707462 4.41336566 -3 7.1875 C-3.556875 7.90292969 -4.11375 8.61835937 -4.6875 9.35546875 C-5.120625 9.89816406 -5.55375 10.44085938 -6 11 C-6.99 10.67 -7.98 10.34 -9 10 C-7.64717831 5.57258356 -5.76701112 3.63690779 -2 1 C-1.34 0.67 -0.68 0.34 0 0 Z " fill="#662821" transform="translate(114,51)"/>
<path d="M0 0 C0.99 0.33 1.98 0.66 3 1 C-0.06679465 4.42409111 -3.11716523 6.27342685 -7.25 8.25 C-8.32765625 8.77078125 -9.4053125 9.2915625 -10.515625 9.828125 C-11.33546875 10.21484375 -12.1553125 10.6015625 -13 11 C-11.65432077 6.96296231 -9.63347727 6.08898484 -6.125 3.75 C-4.52011719 2.65945312 -4.52011719 2.65945312 -2.8828125 1.546875 C-1.93148437 1.03640625 -0.98015625 0.5259375 0 0 Z " fill="#F16C38" transform="translate(162,50)"/>
<path d="M0 0 C2 1 2 1 3 3 C1.08424874 4.12655813 -0.83263719 5.25118687 -2.75 6.375 C-3.81734375 7.00148438 -4.8846875 7.62796875 -5.984375 8.2734375 C-8.29738678 9.59772663 -10.59951417 10.84636846 -13 12 C-9.22660027 7.04741286 -5.09210286 3.56320845 0 0 Z " fill="#F36936" transform="translate(131,38)"/>
<path d="M0 0 C0.33 0.66 0.66 1.32 1 2 C1.66 2 2.32 2 3 2 C3.33 5.63 3.66 9.26 4 13 C2.68 13 1.36 13 0 13 C0 8.71 0 4.42 0 0 Z " fill="#5F231D" transform="translate(15,130)"/>
<path d="M0 0 C1.50433594 0.01353516 1.50433594 0.01353516 3.0390625 0.02734375 C3.80992188 0.03894531 4.58078125 0.05054688 5.375 0.0625 C5.045 1.0525 4.715 2.0425 4.375 3.0625 C5.035 3.3925 5.695 3.7225 6.375 4.0625 C4.41598546 3.94867347 2.4577662 3.82108875 0.5 3.6875 C-0.59054688 3.61789063 -1.68109375 3.54828125 -2.8046875 3.4765625 C-5.625 3.0625 -5.625 3.0625 -7.625 1.0625 C-4.98041621 -0.25979189 -2.94738699 -0.03427194 0 0 Z " fill="#60221C" transform="translate(91.625,59.9375)"/>
<path d="M0 0 C0.66 0.99 1.32 1.98 2 3 C-1.69948187 6.61139896 -1.69948187 6.61139896 -4 8 C-7.375 7.8125 -7.375 7.8125 -10 7 C-6.76478258 4.51137122 -3.40739705 2.24578442 0 0 Z " fill="#6D352E" transform="translate(153,121)"/>
<path d="M0 0 C-3.16532217 2.71313329 -5.9070429 5.00171778 -10 6 C-13.3125 5.125 -13.3125 5.125 -16 4 C-10.99926683 1.19958943 -5.74548584 -0.34821126 0 0 Z " fill="#6C342A" transform="translate(177,212)"/>
<path d="M0 0 C1.32 0.66 2.64 1.32 4 2 C3.401875 2.86625 2.80375 3.7325 2.1875 4.625 C0.17955466 7.62619944 -1.44655098 10.73775706 -3 14 C-3.33 13.34 -3.66 12.68 -4 12 C-3.67 11.34 -3.34 10.68 -3 10 C-3.04125 8.865625 -3.0825 7.73125 -3.125 6.5625 C-3 3 -3 3 -1.5 1.0625 C-1.005 0.711875 -0.51 0.36125 0 0 Z " fill="#62231A" transform="translate(83,113)"/>
<path d="M0 0 C0.33 0 0.66 0 1 0 C1.41713515 1.43146378 1.8080497 2.87058886 2.1875 4.3125 C2.40792969 5.11300781 2.62835938 5.91351563 2.85546875 6.73828125 C3 9 3 9 1.71875 10.78125 C-0.58816376 12.41706157 -2.2378131 12.2239611 -5 12 C-4.01 11.67 -3.02 11.34 -2 11 C-1.24758891 7.34543185 -0.59950296 3.68266103 0 0 Z " fill="#62241C" transform="translate(93,166)"/>
<path d="M0 0 C-0.33 0.99 -0.66 1.98 -1 3 C-1.99 3 -2.98 3 -4 3 C-3.67 3.66 -3.34 4.32 -3 5 C-5.31 5.66 -7.62 6.32 -10 7 C-10 5.68 -10 4.36 -10 3 C-8.70990357 2.49596232 -7.41786211 1.99690074 -6.125 1.5 C-5.04605469 1.08234375 -5.04605469 1.08234375 -3.9453125 0.65625 C-2 0 -2 0 0 0 Z " fill="#61221C" transform="translate(54,100)"/>
<path d="M0 0 C2.64752004 2.57784846 4.94432065 4.91648098 7 8 C4.125 8.125 4.125 8.125 1 8 C0.34 7.34 -0.32 6.68 -1 6 C-0.625 4 -0.625 4 0 2 C0 1.34 0 0.68 0 0 Z " fill="#672924" transform="translate(48,144)"/>
<path d="M0 0 C2.97 0.495 2.97 0.495 6 1 C6.33 1.99 6.66 2.98 7 4 C7.66 4.66 8.32 5.32 9 6 C7.3125 6.8125 7.3125 6.8125 5 7 C2.25 4.6875 2.25 4.6875 0 2 C0 1.34 0 0.68 0 0 Z " fill="#D07A2F" transform="translate(37,202)"/>
<path d="M0 0 C1.01320312 0.17789063 1.01320312 0.17789063 2.046875 0.359375 C-1.07223356 2.15213366 -3.62994928 2.70228218 -7.203125 2.984375 C-8.09515625 3.05914062 -8.9871875 3.13390625 -9.90625 3.2109375 C-10.58171875 3.25992188 -11.2571875 3.30890625 -11.953125 3.359375 C-8.63472464 -1.61822554 -5.34517294 -0.77242384 0 0 Z " fill="#6F362D" transform="translate(190.953125,38.640625)"/>
<path d="M0 0 C1.23593891 3.70781672 0.5678132 4.67510253 -0.9375 8.1875 C-1.31777344 9.08855469 -1.69804688 9.98960937 -2.08984375 10.91796875 C-2.54037109 11.94857422 -2.54037109 11.94857422 -3 13 C-3.33 12.01 -3.66 11.02 -4 10 C-4.66 10 -5.32 10 -6 10 C-6 9.34 -6 8.68 -6 8 C-5.34 8 -4.68 8 -4 8 C-3.67 7.34 -3.34 6.68 -3 6 C-2 4 -1 2 0 0 Z " fill="#601B15" transform="translate(129,142)"/>
<path d="M0 0 C2.97 0 5.94 0 9 0 C9 0.99 9 1.98 9 3 C7.72125 3.144375 6.4425 3.28875 5.125 3.4375 C2.74307106 3.70642746 1.15547309 3.92226346 -1 5 C-0.67 3.35 -0.34 1.7 0 0 Z " fill="#7A4D46" transform="translate(132,131)"/>
<path d="M0 0 C0.99 0 1.98 0 3 0 C3.29296875 6.0546875 3.29296875 6.0546875 3 8 C2.01 8.66 1.02 9.32 0 10 C-1.6415049 6.7169902 -0.51888624 3.57454967 0 0 Z " fill="#6B3832" transform="translate(24,146)"/>
<path d="M0 0 C0.99 0.33 1.98 0.66 3 1 C3 4.3 3 7.6 3 11 C1 10 1 10 0.33203125 8.22265625 C0.07486328 7.15337891 0.07486328 7.15337891 -0.1875 6.0625 C-0.36667969 5.35222656 -0.54585937 4.64195313 -0.73046875 3.91015625 C-1 2 -1 2 0 0 Z " fill="#A2511A" transform="translate(201,117)"/>
<path d="M0 0 C0.99 0.33 1.98 0.66 3 1 C2.67 1.99 2.34 2.98 2 4 C0.0625 4.5625 0.0625 4.5625 -2 5 C-2.66 5.66 -3.32 6.32 -4 7 C-4.33 6.01 -4.66 5.02 -5 4 C-2.6875 1.9375 -2.6875 1.9375 0 0 Z " fill="#6D3530" transform="translate(83,61)"/>
<path d="M0 0 C2.0625 0.4375 2.0625 0.4375 4 1 C3.67 2.32 3.34 3.64 3 5 C2.01 5 1.02 5 0 5 C-0.5625 3.0625 -0.5625 3.0625 -1 1 C-0.67 0.67 -0.34 0.34 0 0 Z " fill="#FDF6E7" transform="translate(75,146)"/>
<path d="M0 0 C0.99 0 1.98 0 3 0 C3.625 2.3125 3.625 2.3125 4 5 C3.01 6.485 3.01 6.485 2 8 C-0.14720899 5.85279101 -0.5434221 4.92209857 -1 2 C-0.67 1.34 -0.34 0.68 0 0 Z " fill="#73342D" transform="translate(17,141)"/>
<path d="M0 0 C4.95696581 1.23924145 7.11658466 2.78577758 10 7 C9.67 7.66 9.34 8.32 9 9 C7.49704815 7.69088122 5.99770689 6.37761608 4.5 5.0625 C3.6646875 4.33160156 2.829375 3.60070312 1.96875 2.84765625 C1.3190625 2.23792969 0.669375 1.62820312 0 1 C0 0.67 0 0.34 0 0 Z " fill="#5D1C15" transform="translate(190,110)"/>
<path d="M0 0 C1.22589844 0.15275391 1.22589844 0.15275391 2.4765625 0.30859375 C3.41628906 0.43427734 3.41628906 0.43427734 4.375 0.5625 C4.375 0.8925 4.375 1.2225 4.375 1.5625 C-0.245 2.2225 -4.865 2.8825 -9.625 3.5625 C-5.90760084 -0.15489916 -4.98655243 -0.64112817 0 0 Z " fill="#BCACAA" transform="translate(186.625,36.4375)"/>
<path d="M0 0 C0.66 0 1.32 0 2 0 C2 3.3 2 6.6 2 10 C1.34 10 0.68 10 0 10 C-0.19412181 8.52168779 -0.38012131 7.04230684 -0.5625 5.5625 C-0.66691406 4.73878906 -0.77132812 3.91507813 -0.87890625 3.06640625 C-0.91886719 2.38449219 -0.95882812 1.70257813 -1 1 C-0.67 0.67 -0.34 0.34 0 0 Z " fill="#FAD878" transform="translate(35,179)"/>
<path d="M0 0 C-2.95074112 1.56779517 -5.87119234 2.70074575 -9.0625 3.6875 C-9.91972656 3.95949219 -10.77695313 4.23148437 -11.66015625 4.51171875 C-14 5 -14 5 -17 4 C-15.10751181 3.32389577 -13.2108398 2.65949561 -11.3125 2 C-10.25675781 1.62875 -9.20101562 1.2575 -8.11328125 0.875 C-5.21637944 0.0608143 -2.98299377 -0.17709796 0 0 Z " fill="#070404" transform="translate(101,2)"/>
<path d="M0 0 C0.99 0 1.98 0 3 0 C3 1.65 3 3.3 3 5 C2.01 5.495 2.01 5.495 1 6 C0.34 5.67 -0.32 5.34 -1 5 C-0.67 3.35 -0.34 1.7 0 0 Z " fill="#FDF5E6" transform="translate(44,170)"/>
<path d="M0 0 C0.99 0 1.98 0 3 0 C3 1.65 3 3.3 3 5 C2.01 5.495 2.01 5.495 1 6 C0.34 5.67 -0.32 5.34 -1 5 C-0.67 3.35 -0.34 1.7 0 0 Z " fill="#FDF7E9" transform="translate(44,159)"/>
<path d="M0 0 C1.39195915 4.17587745 -0.17676781 6.13474776 -2 10 C-2.66 9.67 -3.32 9.34 -4 9 C-2.94124926 5.59687262 -1.99097846 2.98646769 0 0 Z " fill="#F46333" transform="translate(117,151)"/>
<path d="M0 0 C2 1.8125 2 1.8125 4 4 C4 4.99 4 5.98 4 7 C3.01 7.33 2.02 7.66 1 8 C-0.35439668 5.29120665 -0.06501451 2.99066732 0 0 Z " fill="#6C3026" transform="translate(94,135)"/>
<path d="M0 0 C0 0.99 0 1.98 0 3 C-2.97 3 -5.94 3 -9 3 C-6.01800145 0.01800145 -4.21244839 0 0 0 Z " fill="#812C23" transform="translate(40,116)"/>
<path d="M0 0 C1.98 0.66 3.96 1.32 6 2 C6 2.99 6 3.98 6 5 C3.69 4.34 1.38 3.68 -1 3 C-0.67 2.01 -0.34 1.02 0 0 Z " fill="#72352A" transform="translate(188,107)"/>
<path d="M0 0 C1.32 0.33 2.64 0.66 4 1 C4 2.32 4 3.64 4 5 C2.68 5 1.36 5 0 5 C0 3.35 0 1.7 0 0 Z " fill="#FDF8ED" transform="translate(33,192)"/>
<path d="M0 0 C2.93200474 2.85276137 5.64315404 5.65079784 8 9 C4.63704165 7.55873214 2.37072898 5.79407345 0 3 C0 2.01 0 1.02 0 0 Z " fill="#61201B" transform="translate(72,182)"/>
<path d="M0 0 C0.99 0 1.98 0 3 0 C3 1.98 3 3.96 3 6 C1.68 5.34 0.36 4.68 -1 4 C-0.67 2.68 -0.34 1.36 0 0 Z " fill="#FDF6E9" transform="translate(44,181)"/>
<path d="M0 0 C1.32 0.33 2.64 0.66 4 1 C4 2.32 4 3.64 4 5 C2.68 5 1.36 5 0 5 C0 3.35 0 1.7 0 0 Z " fill="#FEF8ED" transform="translate(54,170)"/>
<path d="M0 0 C0.66 0 1.32 0 2 0 C1.67 2.97 1.34 5.94 1 9 C-1.3773161 6.6226839 -1.67028521 5.29714793 -2 2 C-1.34 1.34 -0.68 0.68 0 0 Z " fill="#6A352E" transform="translate(118,165)"/>
<path d="M0 0 C1.32 0.33 2.64 0.66 4 1 C4 2.32 4 3.64 4 5 C2.68 5 1.36 5 0 5 C0 3.35 0 1.7 0 0 Z " fill="#FEF9EE" transform="translate(54,159)"/>
<path d="M0 0 C0.66 0 1.32 0 2 0 C3.5078125 1.75 3.5078125 1.75 5.125 4 C5.66382813 4.7425 6.20265625 5.485 6.7578125 6.25 C7.16773438 6.8275 7.57765625 7.405 8 8 C7.34 8.66 6.68 9.32 6 10 C4.99723227 8.52270825 3.99785546 7.04311423 3 5.5625 C2.443125 4.73878906 1.88625 3.91507812 1.3125 3.06640625 C0 1 0 1 0 0 Z " fill="#E0761D" transform="translate(194,109)"/>
<path d="M0 0 C5.56890517 0.47986031 10.67067568 1.29915181 16 3 C12.23331402 4.3805087 9.55210827 3.59568159 5.75 2.5625 C4.13351563 2.13130859 4.13351563 2.13130859 2.484375 1.69140625 C1.25460938 1.34916016 1.25460938 1.34916016 0 1 C0 0.67 0 0.34 0 0 Z " fill="#0C0909" transform="translate(152,1)"/>
<path d="M0 0 C0.99 0 1.98 0 3 0 C3 2.64 3 5.28 3 8 C2.34 8 1.68 8 1 8 C0.67 5.36 0.34 2.72 0 0 Z " fill="#F8CD65" transform="translate(22,169)"/>
<path d="M0 0 C0.66 0 1.32 0 2 0 C2 2.31 2 4.62 2 7 C0.68 6.67 -0.64 6.34 -2 6 C-1.34 4.02 -0.68 2.04 0 0 Z " fill="#D5CCCB" transform="translate(84,117)"/>
<path d="M0 0 C0.33 0 0.66 0 1 0 C0.58846263 4.97093824 0.20399168 9.44508386 -2 14 C-3.21065165 10.36804504 -2.62784815 8.93468371 -1.5625 5.3125 C-1.27503906 4.31863281 -0.98757812 3.32476562 -0.69140625 2.30078125 C-0.46324219 1.54152344 -0.23507813 0.78226563 0 0 Z " fill="#060303" transform="translate(253,155)"/>
<path d="M0 0 C0.99 0.33 1.98 0.66 3 1 C2.67 4.63 2.34 8.26 2 12 C1.67 12 1.34 12 1 12 C0.67 8.04 0.34 4.08 0 0 Z " fill="#5F130C" transform="translate(94,141)"/>
<path d="M0 0 C6.75 0.75 6.75 0.75 9 3 C5.25 4.125 5.25 4.125 3 3 C3 2.34 3 1.68 3 1 C2.01 0.67 1.02 0.34 0 0 Z " fill="#5F2822" transform="translate(179,105)"/>
<path d="M0 0 C-4.84241633 1.33583899 -8.93437617 2.25328119 -14 2 C-14 1.67 -14 1.34 -14 1 C-12.41913952 0.63495397 -10.83516093 0.28339494 -9.25 -0.0625 C-8.36828125 -0.25972656 -7.4865625 -0.45695313 -6.578125 -0.66015625 C-4.01320972 -0.99825872 -2.42908361 -0.81158635 0 0 Z " fill="#060606" transform="translate(164,252)"/>
<path d="M0 0 C0.33 0 0.66 0 1 0 C1.36504603 1.58086048 1.71660506 3.16483907 2.0625 4.75 C2.25972656 5.63171875 2.45695313 6.5134375 2.66015625 7.421875 C2.99825872 9.98679028 2.81158635 11.57091639 2 14 C0.66416101 9.15758367 -0.25328119 5.06562383 0 0 Z " fill="#070707" transform="translate(2,149)"/>
<path d="M0 0 C2.02350324 3.03525486 2.32124018 4.19426202 2.625 7.6875 C2.69976562 8.49574219 2.77453125 9.30398437 2.8515625 10.13671875 C2.90054688 10.75160156 2.94953125 11.36648437 3 12 C0.7655402 7.96707255 0.45503257 4.55032566 0 0 Z " fill="#080303" transform="translate(251,88)"/>
<path d="M0 0 C0.33 0 0.66 0 1 0 C1.17700355 4.60209225 1.10814567 6.78370866 -1 11 C-0.67 7.37 -0.34 3.74 0 0 Z " fill="#180813" transform="translate(255,144)"/>
<path d="M0 0 C2.10814567 4.21629134 2.17700355 6.39790775 2 11 C1.67 11 1.34 11 1 11 C0.67 7.37 0.34 3.74 0 0 Z " fill="#181313" transform="translate(254,100)"/>
<path d="M0 0 C0 0.33 0 0.66 0 1 C-3.63 1.33 -7.26 1.66 -11 2 C-6.78370866 -0.10814567 -4.60209225 -0.17700355 0 0 Z " fill="#1D0D0D" transform="translate(112,0)"/>
<path d="M0 0 C0.33 0.99 0.66 1.98 1 3 C-0.4375 5.6875 -0.4375 5.6875 -2 8 C-2.33 7.34 -2.66 6.68 -3 6 C-2.06553465 3.96855359 -1.06775224 1.96466413 0 0 Z " fill="#0B0505" transform="translate(246,177)"/>
<path d="M0 0 C0.66 0.33 1.32 0.66 2 1 C0.35 1.66 -1.3 2.32 -3 3 C-2.01 2.01 -1.02 1.02 0 0 Z " fill="#190710" transform="translate(72,11)"/>
<path d="M0 0 C2.475 0.495 2.475 0.495 5 1 C4.01 1.33 3.02 1.66 2 2 C1.34 1.34 0.68 0.68 0 0 Z " fill="#1D131D" transform="translate(85,248)"/>
<path d="M0 0 C2.475 0.495 2.475 0.495 5 1 C4.01 1.33 3.02 1.66 2 2 C1.34 1.34 0.68 0.68 0 0 Z " fill="#000000" transform="translate(77,245)"/>
<path d="M0 0 C1.98 0.99 1.98 0.99 4 2 C3.01 2 2.02 2 1 2 C0.67 1.34 0.34 0.68 0 0 Z " fill="#0A0A0A" transform="translate(42,222)"/>
<path d="M0 0 C1.485 0.99 1.485 0.99 3 2 C2.67 2.66 2.34 3.32 2 4 C1.34 2.68 0.68 1.36 0 0 Z " fill="#0A0A0A" transform="translate(31,210)"/>
<path d="M0 0 C0 0.99 0 1.98 0 3 C-0.99 3.495 -0.99 3.495 -2 4 C-1.34 2.68 -0.68 1.36 0 0 Z " fill="#0A0A0A" transform="translate(227,208)"/>
<path d="M0 0 C0.66 0.66 1.32 1.32 2 2 C1.67 2.99 1.34 3.98 1 5 C0.67 3.35 0.34 1.7 0 0 Z " fill="#000000" transform="translate(9,174)"/>
<path d="M0 0 C0.66 0.66 1.32 1.32 2 2 C1.67 2.99 1.34 3.98 1 5 C0.67 3.35 0.34 1.7 0 0 Z " fill="#080808" transform="translate(249,83)"/>
<path d="M0 0 C0.33 0.99 0.66 1.98 1 3 C0.34 3.66 -0.32 4.32 -1 5 C-0.67 3.35 -0.34 1.7 0 0 Z " fill="#1D1313" transform="translate(8,81)"/>
<path d="M0 0 C0.66 0.66 1.32 1.32 2 2 C1.67 2.99 1.34 3.98 1 5 C0.67 3.35 0.34 1.7 0 0 Z " fill="#000000" transform="translate(245,73)"/>
<path d="M0 0 C0.66 0.33 1.32 0.66 2 1 C0.02 1.99 0.02 1.99 -2 3 C-1.34 2.01 -0.68 1.02 0 0 Z " fill="#0A000A" transform="translate(46,28)"/>
<path d="M0 0 C2.475 0.495 2.475 0.495 5 1 C4.01 1.33 3.02 1.66 2 2 C1.34 1.34 0.68 0.68 0 0 Z " fill="#000000" transform="translate(178,9)"/>
<path d="M0 0 C0.99 0.33 1.98 0.66 3 1 C1.35 1.33 -0.3 1.66 -2 2 C-1.34 1.34 -0.68 0.68 0 0 Z " fill="#000000" transform="translate(76,9)"/>
<path d="M0 0 C0.99 0.33 1.98 0.66 3 1 C1.35 1.33 -0.3 1.66 -2 2 C-1.34 1.34 -0.68 0.68 0 0 Z " fill="#200A15" transform="translate(81,7)"/>
<path d="M0 0 C1.98 0 3.96 0 6 0 C6 0.33 6 0.66 6 1 C4.02 1 2.04 1 0 1 C0 0.67 0 0.34 0 0 Z " fill="#1D1313" transform="translate(146,0)"/>
<path d="M0 0 C1.65 0 3.3 0 5 0 C5 0.33 5 0.66 5 1 C3.35 1 1.7 1 0 1 C0 0.67 0 0.34 0 0 Z " fill="#170A0A" transform="translate(102,253)"/>
<path d="M0 0 C1.65 0 3.3 0 5 0 C5 0.33 5 0.66 5 1 C3.35 1 1.7 1 0 1 C0 0.67 0 0.34 0 0 Z " fill="#000000" transform="translate(97,252)"/>
<path d="M0 0 C4 1 4 1 4 1 Z " fill="#000000" transform="translate(93,251)"/>
<path d="M0 0 C0.66 0.33 1.32 0.66 2 1 C1.01 1 0.02 1 -1 1 C-0.67 0.67 -0.34 0.34 0 0 Z " fill="#100010" transform="translate(193,237)"/>
<path d="M0 0 C0.99 0.33 1.98 0.66 3 1 C2.01 1 1.02 1 0 1 C0 0.67 0 0.34 0 0 Z " fill="#100000" transform="translate(56,233)"/>
<path d="M0 0 C0.66 0.33 1.32 0.66 2 1 C1.01 1 0.02 1 -1 1 C-0.67 0.67 -0.34 0.34 0 0 Z " fill="#100000" transform="translate(202,231)"/>
<path d="M0 0 C0.99 0.33 1.98 0.66 3 1 C2.01 1 1.02 1 0 1 C0 0.67 0 0.34 0 0 Z " fill="#101010" transform="translate(53,231)"/>
<path d="M0 0 C0.66 0.33 1.32 0.66 2 1 C1.01 1 0.02 1 -1 1 C-0.67 0.67 -0.34 0.34 0 0 Z " fill="#100010" transform="translate(206,228)"/>
<path d="M0 0 C0.99 0.33 1.98 0.66 3 1 C2.01 1 1.02 1 0 1 C0 0.67 0 0.34 0 0 Z " fill="#101010" transform="translate(49,228)"/>
<path d="M0 0 C0.66 0.33 1.32 0.66 2 1 C1.01 1 0.02 1 -1 1 C-0.67 0.67 -0.34 0.34 0 0 Z " fill="#100010" transform="translate(211,224)"/>
<path d="M0 0 C0.99 0.495 0.99 0.495 2 1 C1.67 1.66 1.34 2.32 1 3 C0.67 2.01 0.34 1.02 0 0 Z " fill="#101010" transform="translate(26,204)"/>
<path d="M0 0 C0.99 0.495 0.99 0.495 2 1 C1.67 1.66 1.34 2.32 1 3 C0.67 2.01 0.34 1.02 0 0 Z " fill="#101010" transform="translate(23,200)"/>
<path d="M0 0 C0.99 0.495 0.99 0.495 2 1 C1.67 1.66 1.34 2.32 1 3 C0.67 2.01 0.34 1.02 0 0 Z " fill="#100000" transform="translate(21,197)"/>
<path d="M0 0 C0 3 0 3 0 3 Z " fill="#201010" transform="translate(18,61)"/>
<path d="M0 0 C0.99 0.495 0.99 0.495 2 1 C1.67 1.66 1.34 2.32 1 3 C0.67 2.01 0.34 1.02 0 0 Z " fill="#101010" transform="translate(237,59)"/>
<path d="M0 0 C0.99 0.495 0.99 0.495 2 1 C1.67 1.66 1.34 2.32 1 3 C0.67 2.01 0.34 1.02 0 0 Z " fill="#0C0C0C" transform="translate(235,56)"/>
<path d="M0 0 C0.99 0.495 0.99 0.495 2 1 C1.67 1.66 1.34 2.32 1 3 C0.67 2.01 0.34 1.02 0 0 Z " fill="#100000" transform="translate(233,53)"/>
<path d="M0 0 C0.99 0.495 0.99 0.495 2 1 C1.67 1.66 1.34 2.32 1 3 C0.67 2.01 0.34 1.02 0 0 Z " fill="#100010" transform="translate(230,49)"/>
<path d="M0 0 C0.99 0.495 0.99 0.495 2 1 C1.67 1.66 1.34 2.32 1 3 C0.67 2.01 0.34 1.02 0 0 Z " fill="#101010" transform="translate(227,45)"/>
<path d="M0 0 C0 3 0 3 0 3 Z " fill="#100000" transform="translate(31,43)"/>
<path d="M0 0 C0.99 0.33 1.98 0.66 3 1 C2.01 1 1.02 1 0 1 C0 0.67 0 0.34 0 0 Z " fill="#101010" transform="translate(208,27)"/>
<path d="M0 0 C0.99 0.33 1.98 0.66 3 1 C2.01 1 1.02 1 0 1 C0 0.67 0 0.34 0 0 Z " fill="#100000" transform="translate(204,24)"/>
<path d="M0 0 C0.99 0.33 1.98 0.66 3 1 C2.01 1 1.02 1 0 1 C0 0.67 0 0.34 0 0 Z " fill="#100000" transform="translate(200,21)"/>
<path d="M0 0 C0.99 0.33 1.98 0.66 3 1 C2.01 1 1.02 1 0 1 C0 0.67 0 0.34 0 0 Z " fill="#0C0C0C" transform="translate(197,19)"/>
<path d="M0 0 C0.99 0.33 1.98 0.66 3 1 C2.01 1 1.02 1 0 1 C0 0.67 0 0.34 0 0 Z " fill="#100010" transform="translate(194,17)"/>
<path d="M0 0 C0.99 0.33 1.98 0.66 3 1 C2.01 1 1.02 1 0 1 C0 0.67 0 0.34 0 0 Z " fill="#0C0C0C" transform="translate(187,13)"/>
<path d="M0 0 C3 1 3 1 3 1 Z " fill="#150000" transform="translate(164,250)"/>
<path d="M0 0 C3 1 3 1 3 1 Z " fill="#150000" transform="translate(90,250)"/>
<path d="M0 0 C3 1 3 1 3 1 Z " fill="#2A1515" transform="translate(167,249)"/>
<path d="M0 0 C3 1 3 1 3 1 Z " fill="#151515" transform="translate(172,247)"/>
<path d="M0 0 C3 1 3 1 3 1 Z " fill="#150000" transform="translate(82,247)"/>
<path d="M0 0 C3 1 3 1 3 1 Z " fill="#000000" transform="translate(175,246)"/>
<path d="" fill="#150015" transform="translate(0,0)"/>
<path d="" fill="#150000" transform="translate(0,0)"/>
<path d="" fill="#111111" transform="translate(0,0)"/>
<path d="" fill="#2A2A2A" transform="translate(0,0)"/>
<path d="" fill="#150000" transform="translate(0,0)"/>
<path d="" fill="#150000" transform="translate(0,0)"/>
<path d="" fill="#111111" transform="translate(0,0)"/>
<path d="" fill="#2A1515" transform="translate(0,0)"/>
<path d="" fill="#000000" transform="translate(0,0)"/>
<path d="M0 0 C3 1 3 1 3 1 Z " fill="#151515" transform="translate(173,7)"/>
<path d="M0 0 C3 1 3 1 3 1 Z " fill="#150000" transform="translate(168,5)"/>
<path d="M0 0 C2 1 2 1 2 1 Z " fill="#191919" transform="translate(170,248)"/>
<path d="M0 0 C2 1 2 1 2 1 Z " fill="#000000" transform="translate(178,245)"/>
<path d="M0 0 C2 1 2 1 2 1 Z " fill="#000000" transform="translate(180,244)"/>
<path d="M0 0 C2 1 2 1 2 1 Z " fill="#000000" transform="translate(75,244)"/>
<path d="M0 0 C2 1 2 1 2 1 Z " fill="#000000" transform="translate(182,243)"/>
<path d="M0 0 C2 1 2 1 2 1 Z " fill="#202020" transform="translate(73,243)"/>
<path d="M0 0 C2 1 2 1 2 1 Z " fill="#200020" transform="translate(184,242)"/>
<path d="M0 0 C2 1 2 1 2 1 Z " fill="#191919" transform="translate(71,242)"/>
<path d="M0 0 C2 1 2 1 2 1 Z " fill="#200000" transform="translate(186,241)"/>
<path d="M0 0 C2 1 2 1 2 1 Z " fill="#202020" transform="translate(69,241)"/>
<path d="M0 0 C2 1 2 1 2 1 Z " fill="#000000" transform="translate(188,240)"/>
<path d="M0 0 C2 1 2 1 2 1 Z " fill="#000000" transform="translate(67,240)"/>
<path d="M0 0 C2 1 2 1 2 1 Z " fill="#000000" transform="translate(190,239)"/>
<path d="M0 0 C2 1 2 1 2 1 Z " fill="#000000" transform="translate(65,239)"/>
<path d="M0 0 C2 1 2 1 2 1 Z " fill="#200000" transform="translate(62,237)"/>
<path d="M0 0 C2 1 2 1 2 1 Z " fill="#191919" transform="translate(195,236)"/>
<path d="M0 0 C2 1 2 1 2 1 Z " fill="#000000" transform="translate(59,235)"/>
<path d="M0 0 C2 1 2 1 2 1 Z " fill="#000000" transform="translate(198,234)"/>
<path d="" fill="#200000" transform="translate(0,0)"/>
<path d="" fill="#000000" transform="translate(0,0)"/>
<path d="" fill="#000000" transform="translate(0,0)"/>
<path d="" fill="#000000" transform="translate(0,0)"/>
<path d="" fill="#200000" transform="translate(0,0)"/>
<path d="" fill="#000000" transform="translate(0,0)"/>
<path d="" fill="#000000" transform="translate(0,0)"/>
<path d="" fill="#000000" transform="translate(0,0)"/>
<path d="" fill="#000000" transform="translate(0,0)"/>
<path d="" fill="#000000" transform="translate(0,0)"/>
<path d="" fill="#000000" transform="translate(0,0)"/>
<path d="" fill="#000000" transform="translate(0,0)"/>
<path d="" fill="#202020" transform="translate(0,0)"/>
<path d="" fill="#191919" transform="translate(0,0)"/>
<path d="" fill="#202020" transform="translate(0,0)"/>
<path d="" fill="#000000" transform="translate(0,0)"/>
<path d="" fill="#191919" transform="translate(0,0)"/>
<path d="" fill="#191919" transform="translate(0,0)"/>
<path d="" fill="#202020" transform="translate(0,0)"/>
<path d="" fill="#000000" transform="translate(0,0)"/>
<path d="" fill="#000000" transform="translate(0,0)"/>
<path d="" fill="#200000" transform="translate(0,0)"/>
<path d="" fill="#200020" transform="translate(0,0)"/>
<path d="" fill="#200000" transform="translate(0,0)"/>
<path d="" fill="#191919" transform="translate(0,0)"/>
<path d="" fill="#000000" transform="translate(0,0)"/>
<path d="" fill="#000000" transform="translate(0,0)"/>
<path d="" fill="#000000" transform="translate(0,0)"/>
<path d="" fill="#000000" transform="translate(0,0)"/>
<path d="" fill="#000000" transform="translate(0,0)"/>
<path d="" fill="#000000" transform="translate(0,0)"/>
<path d="" fill="#191919" transform="translate(0,0)"/>
<path d="" fill="#000000" transform="translate(0,0)"/>
<path d="" fill="#000000" transform="translate(0,0)"/>
<path d="" fill="#200000" transform="translate(0,0)"/>
<path d="M0 0 C2 1 2 1 2 1 Z " fill="#000000" transform="translate(50,25)"/>
<path d="M0 0 C2 1 2 1 2 1 Z " fill="#000000" transform="translate(54,22)"/>
<path d="M0 0 C2 1 2 1 2 1 Z " fill="#000000" transform="translate(57,20)"/>
<path d="M0 0 C2 1 2 1 2 1 Z " fill="#000000" transform="translate(60,18)"/>
<path d="M0 0 C2 1 2 1 2 1 Z " fill="#000000" transform="translate(192,16)"/>
<path d="M0 0 C2 1 2 1 2 1 Z " fill="#000000" transform="translate(63,16)"/>
<path d="M0 0 C2 1 2 1 2 1 Z " fill="#000000" transform="translate(190,15)"/>
<path d="M0 0 C2 1 2 1 2 1 Z " fill="#000000" transform="translate(65,15)"/>
<path d="M0 0 C2 1 2 1 2 1 Z " fill="#000000" transform="translate(67,14)"/>
<path d="M0 0 C2 1 2 1 2 1 Z " fill="#191919" transform="translate(185,12)"/>
<path d="M0 0 C2 1 2 1 2 1 Z " fill="#200000" transform="translate(183,11)"/>
<path d="M0 0 C2 1 2 1 2 1 Z " fill="#202020" transform="translate(176,8)"/>
<path d="M0 0 C2 1 2 1 2 1 Z " fill="#191919" transform="translate(171,6)"/>
<path d="" fill="#400000" transform="translate(0,0)"/>
<path d="" fill="#333333" transform="translate(0,0)"/>
<path d="" fill="#000000" transform="translate(0,0)"/>
<path d="" fill="#000000" transform="translate(0,0)"/>
<path d="" fill="#333333" transform="translate(0,0)"/>
<path d="" fill="#400000" transform="translate(0,0)"/>
<path d="" fill="#400000" transform="translate(0,0)"/>
<path d="" fill="#000000" transform="translate(0,0)"/>
<path d="" fill="#333333" transform="translate(0,0)"/>
<path d="" fill="#404040" transform="translate(0,0)"/>
<path d="" fill="#333333" transform="translate(0,0)"/>
<path d="" fill="#000000" transform="translate(0,0)"/>
<path d="" fill="#000000" transform="translate(0,0)"/>
<path d="" fill="#400000" transform="translate(0,0)"/>
<path d="" fill="#000000" transform="translate(0,0)"/>
<path d="" fill="#404040" transform="translate(0,0)"/>
<path d="" fill="#000000" transform="translate(0,0)"/>
<path d="" fill="#333333" transform="translate(0,0)"/>
<path d="" fill="#000000" transform="translate(0,0)"/>
<path d="" fill="#333333" transform="translate(0,0)"/>
<path d="" fill="#400000" transform="translate(0,0)"/>
<path d="" fill="#333333" transform="translate(0,0)"/>
<path d="" fill="#400000" transform="translate(0,0)"/>
<path d="" fill="#404040" transform="translate(0,0)"/>
<path d="" fill="#000000" transform="translate(0,0)"/>
<path d="" fill="#404040" transform="translate(0,0)"/>
<path d="" fill="#000000" transform="translate(0,0)"/>
<path d="" fill="#400040" transform="translate(0,0)"/>
<path d="" fill="#000000" transform="translate(0,0)"/>
<path d="" fill="#000000" transform="translate(0,0)"/>
<path d="" fill="#000000" transform="translate(0,0)"/>
<path d="" fill="#333333" transform="translate(0,0)"/>
<path d="" fill="#404040" transform="translate(0,0)"/>
<path d="" fill="#400040" transform="translate(0,0)"/>
<path d="" fill="#000000" transform="translate(0,0)"/>
<path d="" fill="#000000" transform="translate(0,0)"/>
<path d="" fill="#333333" transform="translate(0,0)"/>
<path d="" fill="#400000" transform="translate(0,0)"/>
<path d="" fill="#000000" transform="translate(0,0)"/>
<path d="" fill="#400000" transform="translate(0,0)"/>
<path d="" fill="#404040" transform="translate(0,0)"/>
<path d="" fill="#333333" transform="translate(0,0)"/>
<path d="" fill="#400000" transform="translate(0,0)"/>
<path d="" fill="#400000" transform="translate(0,0)"/>
<path d="" fill="#404040" transform="translate(0,0)"/>
<path d="" fill="#000000" transform="translate(0,0)"/>
<path d="" fill="#400000" transform="translate(0,0)"/>
<path d="" fill="#404040" transform="translate(0,0)"/>
<path d="" fill="#000000" transform="translate(0,0)"/>
<path d="" fill="#333333" transform="translate(0,0)"/>
<path d="" fill="#404040" transform="translate(0,0)"/>
<path d="" fill="#000000" transform="translate(0,0)"/>
<path d="" fill="#400040" transform="translate(0,0)"/>
<path d="" fill="#404040" transform="translate(0,0)"/>
<path d="" fill="#000000" transform="translate(0,0)"/>
<path d="" fill="#400000" transform="translate(0,0)"/>
<path d="" fill="#404040" transform="translate(0,0)"/>
<path d="" fill="#000000" transform="translate(0,0)"/>
<path d="" fill="#333333" transform="translate(0,0)"/>
<path d="" fill="#400000" transform="translate(0,0)"/>
<path d="" fill="#404040" transform="translate(0,0)"/>
<path d="" fill="#404040" transform="translate(0,0)"/>
<path d="" fill="#404040" transform="translate(0,0)"/>
<path d="" fill="#404040" transform="translate(0,0)"/>
<path d="" fill="#404040" transform="translate(0,0)"/>
<path d="" fill="#333333" transform="translate(0,0)"/>
<path d="" fill="#404040" transform="translate(0,0)"/>
<path d="" fill="#333333" transform="translate(0,0)"/>
<path d="" fill="#333333" transform="translate(0,0)"/>
<path d="" fill="#333333" transform="translate(0,0)"/>
<path d="" fill="#404040" transform="translate(0,0)"/>
<path d="" fill="#333333" transform="translate(0,0)"/>
<path d="" fill="#404040" transform="translate(0,0)"/>
<path d="" fill="#404040" transform="translate(0,0)"/>
<path d="" fill="#404040" transform="translate(0,0)"/>
<path d="" fill="#404040" transform="translate(0,0)"/>
<path d="" fill="#404040" transform="translate(0,0)"/>
<path d="" fill="#400000" transform="translate(0,0)"/>
<path d="" fill="#404040" transform="translate(0,0)"/>
<path d="" fill="#000000" transform="translate(0,0)"/>
<path d="" fill="#400000" transform="translate(0,0)"/>
<path d="" fill="#000000" transform="translate(0,0)"/>
<path d="" fill="#404040" transform="translate(0,0)"/>
<path d="" fill="#404040" transform="translate(0,0)"/>
<path d="" fill="#000000" transform="translate(0,0)"/>
<path d="" fill="#333333" transform="translate(0,0)"/>
<path d="" fill="#404040" transform="translate(0,0)"/>
<path d="" fill="#400000" transform="translate(0,0)"/>
<path d="" fill="#400000" transform="translate(0,0)"/>
<path d="" fill="#333333" transform="translate(0,0)"/>
<path d="" fill="#400040" transform="translate(0,0)"/>
</svg>
