<svg xmlns="http://www.w3.org/2000/svg" x="0px" y="0px"
width="36" height="36"
viewBox="0 0 172 172"
style=" fill:#000000;"><g fill="none" fill-rule="nonzero" stroke="none" stroke-width="1" stroke-linecap="butt" stroke-linejoin="miter" stroke-miterlimit="10" stroke-dasharray="" stroke-dashoffset="0" font-family="none" font-weight="none" font-size="none" text-anchor="none" style="mix-blend-mode: normal"><path d="M0,172v-172h172v172z" fill="none"></path><g><path d="M86.16842,17.91667c-5.57208,0.01792 -9.43492,0.50883 -14.104,1.31508c-13.78867,2.40083 -16.30058,7.44258 -16.30058,16.73417v14.20075h32.25v7.16667h-33.4755h-15.5875c-9.44567,0 -17.71242,4.4505 -20.33183,15.11808c-2.95983,12.24425 -3.09242,19.91258 0,32.69792c2.34708,9.53525 7.51783,16.684 16.96708,16.684h13.01467v-18.28933c0,-10.62817 9.62483,-21.12733 20.65433,-21.12733h25.929c9.04075,0 17.91667,-6.67217 17.91667,-15.68425v-30.7665c0,-8.73975 -6.30308,-15.27575 -15.1145,-16.74133c0.21858,-0.0215 -6.29233,-1.32942 -11.81783,-1.30792zM68.30908,32.25c2.94192,0 5.375,2.42592 5.375,5.38217c0,2.98492 -2.43308,5.36783 -5.375,5.36783c-2.99925,0 -5.375,-2.37933 -5.375,-5.36783c0,-2.9455 2.37575,-5.38217 5.375,-5.38217z" fill="#0277bd"></path><path d="M82.69617,154.08333c5.57208,-0.01792 9.43492,-0.50883 14.104,-1.31508c13.78867,-2.40083 16.30058,-7.44258 16.30058,-16.73417v-14.20075h-32.25v-7.16667h33.47908h15.5875c9.44567,0 17.71242,-4.4505 20.33183,-15.11808c2.95983,-12.24425 3.09242,-19.91258 0,-32.69792c-2.35067,-9.53525 -7.52142,-16.684 -16.97067,-16.684h-13.01467v18.28933c0,10.62817 -9.62483,21.12733 -20.65433,21.12733h-25.929c-9.04075,0 -17.91667,6.67217 -17.91667,15.68425v30.7665c0,8.73975 6.30308,15.27575 15.1145,16.74133c-0.21858,0.0215 6.29233,1.32942 11.81783,1.30792zM100.55908,139.75c-2.94192,0 -5.375,-2.42592 -5.375,-5.38217c0,-2.98492 2.43308,-5.36783 5.375,-5.36783c2.99925,0 5.375,2.37933 5.375,5.36783c0,2.9455 -2.37933,5.38217 -5.375,5.38217z" fill="#ffc107"></path></g></g></svg>
