<svg xmlns="http://www.w3.org/2000/svg" x="0px" y="0px"
width="36" height="36"
viewBox="0 0 172 172"
style=" fill:#000000;"><g fill="none" fill-rule="nonzero" stroke="none" stroke-width="1" stroke-linecap="butt" stroke-linejoin="miter" stroke-miterlimit="10" stroke-dasharray="" stroke-dashoffset="0" font-family="none" font-weight="none" font-size="none" text-anchor="none" style="mix-blend-mode: normal"><path d="M0,172v-172h172v172z" fill="none"></path><g><path d="M72.025,58.05l0.35833,8.24167l-5.73333,10.75l-8.95833,17.55833l-1.79167,14.69167l6.45,20.78333l14.69167,8.24167h22.21667l20.78333,-15.76667l9.31667,-24.725l-21.5,-26.15833l-6.09167,-14.69167z" fill="#eceff1"></path><path d="M122.90833,78.475c-5.73333,-8.24167 -10.39167,-13.25833 -12.9,-23.65c-2.50833,-10.39167 0.71667,-7.525 -1.43333,-16.48333c-1.075,-4.65833 -2.86667,-7.88333 -4.65833,-10.39167c-2.15,-2.50833 -4.65833,-3.94167 -6.09167,-4.3c-3.225,-1.79167 -10.75,-4.65833 -20.06667,0.35833c-9.675,5.01667 -8.6,15.76667 -6.80833,37.625c0,1.43333 -0.35833,3.225 -1.075,4.65833c-1.43333,3.225 -3.94167,6.09167 -6.09167,8.6c-2.50833,3.58333 -5.01667,7.16667 -6.80833,11.10833c-4.3,8.24167 -8.24167,18.63333 -7.16667,22.575c1.79167,-0.35833 24.36667,34.04167 24.36667,34.75833c1.43333,-0.35833 7.525,-0.35833 12.9,-0.35833c7.525,-0.35833 11.825,-0.71667 17.91667,0.71667c0,-1.075 -0.35833,-2.15 -0.35833,-3.225c0,-2.15 0.35833,-3.94167 0.71667,-6.45c0.35833,-1.79167 0.71667,-3.58333 1.075,-5.73333c-3.58333,3.225 -10.03333,6.80833 -16.125,7.88333c-5.375,1.075 -14.33333,-0.71667 -18.63333,-6.09167c0.35833,0 1.075,0 1.43333,-0.35833c1.075,-0.35833 2.15,-0.71667 2.50833,-1.43333c1.075,-1.79167 0.35833,-3.58333 -0.35833,-4.65833c-0.71667,-1.075 -6.09167,-5.01667 -8.6,-7.16667c-2.50833,-2.15 -3.94167,-3.225 -5.375,-4.65833c0,0 -2.15,-2.15 -2.86667,-2.86667c-0.71667,-0.71667 -1.075,-1.43333 -1.43333,-1.79167c-0.71667,-1.79167 -1.075,-3.94167 -0.71667,-6.80833c0.35833,-3.94167 1.79167,-7.16667 3.58333,-10.75c0.71667,-1.43333 2.50833,-4.3 2.50833,-4.3c0,0 -6.09167,15.05 -2.86667,19.70833c0,0 0.35833,-4.65833 1.79167,-9.31667c1.075,-3.225 2.86667,-7.88333 5.01667,-10.39167c2.15,-2.50833 7.525,-11.825 7.88333,-17.55833c0,-2.50833 0.35833,-5.01667 0.35833,-6.80833c-1.43333,-1.43333 23.65,-5.01667 25.08333,-1.075c0.35833,1.43333 5.375,14.33333 8.24167,21.14167c1.43333,3.225 3.225,6.09167 4.3,9.675c1.075,3.94167 1.79167,9.31667 1.79167,14.69167c0,1.075 0,2.86667 -0.35833,4.65833c0.71667,0 14.69167,-15.05 -1.79167,-27.59167c0,0 10.03333,4.65833 10.39167,13.975c0.35833,7.525 -2.86667,13.61667 -3.58333,14.69167c0.35833,0 7.525,3.225 7.88333,3.225c1.43333,0 4.3,-1.075 4.3,-1.075c0.35833,-1.075 1.43333,-3.94167 1.43333,-5.01667c2.50833,-8.24167 -3.58333,-21.5 -9.31667,-29.74167z" fill="#263238"></path><path d="M77.4,40.49167c-2.57273,0 -4.65833,3.20863 -4.65833,7.16667c0,3.95804 2.08561,7.16667 4.65833,7.16667c2.57273,0 4.65833,-3.20863 4.65833,-7.16667c0,-3.95804 -2.08561,-7.16667 -4.65833,-7.16667zM93.525,39.05833c-3.36433,0 -6.09167,3.68992 -6.09167,8.24167c0,4.55175 2.72733,8.24167 6.09167,8.24167c3.36433,0 6.09167,-3.68992 6.09167,-8.24167c0,-4.55175 -2.72733,-8.24167 -6.09167,-8.24167z" fill="#eceff1"></path><path d="M75.02774,48.77716c0.29781,2.35608 1.65338,4.12523 3.02776,3.9515c1.37438,-0.17372 2.24711,-2.22453 1.9493,-4.58061c-0.29781,-2.35608 -1.65338,-4.12523 -3.02776,-3.9515c-1.37438,0.17372 -2.24711,2.22453 -1.9493,4.58061z" fill="#212121"></path><path d="M93.16667,44.075c-1.97902,0 -3.58333,2.08561 -3.58333,4.65833c0,2.57273 1.60431,4.65833 3.58333,4.65833c1.97902,0 3.58333,-2.08561 3.58333,-4.65833c0,-2.57273 -1.60431,-4.65833 -3.58333,-4.65833z" fill="#212121"></path><path d="M140.825,127.56667c-1.43333,-0.71667 -3.94167,-1.79167 -6.09167,-5.01667c-1.075,-1.79167 -0.71667,-6.80833 -2.50833,-8.95833c-1.075,-1.43333 -2.50833,-0.71667 -2.86667,-0.71667c-3.225,0.71667 -10.75,5.73333 -15.76667,0c-0.71667,-0.71667 -1.79167,-1.79167 -3.58333,-1.79167c-1.79167,0 -2.50833,0.71667 -3.225,2.15c-0.71667,1.43333 -0.71667,2.50833 -0.71667,6.09167c0,2.86667 0,6.09167 -0.35833,8.6c-0.71667,6.09167 -1.79167,9.675 -1.79167,13.25833c0,3.94167 1.075,6.45 2.50833,7.525c1.075,1.075 2.86667,1.79167 6.80833,1.79167c3.94167,0 6.45,-1.43333 8.95833,-3.94167c1.79167,-1.79167 3.225,-2.50833 8.24167,-6.09167c3.94167,-2.50833 10.03333,-5.73333 11.10833,-6.80833c0.71667,-0.71667 1.79167,-1.075 1.79167,-3.225c0,-1.79167 -1.43333,-2.50833 -2.50833,-2.86667zM68.8,128.64167c-3.58333,-5.73333 -3.94167,-6.80833 -6.45,-10.39167c-2.15,-3.58333 -6.80833,-10.39167 -9.675,-10.39167c-2.15,0 -3.225,1.075 -4.65833,2.50833c-1.43333,1.43333 -2.86667,4.65833 -5.375,6.45c-2.15,1.79167 -8.24167,1.43333 -9.675,3.58333c-1.43333,2.15 1.43333,5.375 1.43333,10.75c0,2.15 -1.79167,3.58333 -2.15,5.01667c-0.35833,1.79167 -0.71667,2.86667 0,4.3c1.43333,2.15 3.225,2.86667 15.40833,5.375c6.45,1.43333 12.54167,5.01667 16.48333,5.375c3.94167,0.35833 10.75,0 10.75,-9.675c0.35833,-5.73333 -2.86667,-7.16667 -6.09167,-12.9zM75.60833,63.78333c-2.15,-1.43333 -3.94167,-2.86667 -3.94167,-5.01667c0,-2.15 1.43333,-2.86667 3.58333,-4.65833c0.35833,-0.35833 4.3,-3.94167 8.24167,-3.94167c3.94167,0 8.6,2.50833 10.39167,3.225c3.225,0.71667 6.45,1.43333 6.09167,3.94167c-0.35833,3.58333 -0.71667,4.3 -4.3,6.09167c-2.50833,0.71667 -7.16667,4.65833 -10.39167,4.65833c-1.43333,0 -3.58333,0 -5.01667,-0.35833c-1.075,-0.35833 -2.86667,-2.15 -4.65833,-3.94167z" fill="#ffc107"></path><g fill="#634703"><path d="M74.89167,60.91667c0.71667,0.71667 1.79167,1.43333 2.86667,1.79167c0.71667,0.35833 1.79167,0.71667 1.79167,0.71667c1.43333,0 2.50833,0 3.225,0c1.79167,0 4.3,-0.71667 6.80833,-2.15c2.50833,-1.075 2.86667,-1.79167 4.65833,-2.50833c1.79167,-1.075 3.58333,-2.15 2.86667,-2.50833c-0.71667,-0.35833 -1.43333,0 -3.94167,1.43333c-2.15,1.43333 -3.94167,2.15 -6.09167,3.225c-1.075,0.35833 -2.50833,1.075 -3.58333,1.075c-1.075,0 -2.15,0 -3.225,0c-1.075,0 -1.79167,-0.35833 -2.86667,-0.71667c-0.71667,-0.35833 -1.075,-0.71667 -1.43333,-0.71667c-0.71667,-0.35833 -2.15,-1.79167 -2.86667,-2.15c0,0 -0.71667,0 -0.35833,0.35833c1.075,1.075 1.43333,1.43333 2.15,2.15zM85.64167,53.03333c0.35833,0.71667 1.075,0.71667 1.43333,1.075c0.35833,0.35833 0.71667,0.35833 0.71667,0.35833c0.35833,-0.35833 0,-1.075 -0.35833,-1.075c0,-0.71667 -1.79167,-0.71667 -1.79167,-0.35833zM79.90833,53.75c0,0.35833 0.71667,0.71667 0.71667,0.35833c0.35833,-0.35833 0.71667,-0.71667 1.075,-0.71667c0.71667,-0.35833 0.35833,-0.71667 -0.71667,-0.71667c-0.71667,0.35833 -0.71667,0.71667 -1.075,1.075z"></path></g><path d="M114.66667,117.175c0,0.35833 0,0.71667 0,1.075c0.71667,1.43333 2.50833,1.79167 3.94167,1.79167c2.15,0 4.3,-1.43333 5.375,-2.86667c0,-0.35833 0.35833,-0.71667 0.71667,-1.075c0.71667,-1.075 1.075,-1.79167 1.43333,-2.15c0,0 -0.35833,-0.35833 -0.35833,-0.71667c-0.35833,-0.71667 -1.43333,-1.43333 -2.86667,-1.79167c-1.075,-0.35833 -2.86667,-0.71667 -3.58333,-0.71667c-3.225,-0.35833 -5.01667,0.71667 -6.09167,1.79167c0,0 0.35833,0 0.35833,0.35833c0.71667,0.71667 1.075,1.43333 1.075,2.50833c0.35833,0.71667 0,1.075 0,1.79167z" fill="#455a64"></path></g></g></svg>
