<?xml version="1.0" encoding="UTF-8"?>
<svg version="1.1" xmlns="http://www.w3.org/2000/svg" width="512" height="512">
<path d="M0 0 C0.92288818 0.35980957 1.84577637 0.71961914 2.79663086 1.09033203 C3.60140869 1.37086426 4.40618652 1.65139648 5.23535156 1.94042969 C6.46644653 2.46709229 6.46644653 2.46709229 7.72241211 3.00439453 C9.21562988 3.634021 9.21562988 3.634021 10.73901367 4.27636719 C11.85115234 4.75122559 12.96329102 5.22608398 14.10913086 5.71533203 C16.69265905 6.8014078 19.27704854 7.88515066 21.86303711 8.96533203 C22.59549652 9.2716153 23.32795593 9.57789856 24.08261108 9.89346313 C35.57166429 14.68247578 47.12767027 19.30893684 58.6729393 23.96031952 C61.71485468 25.18607312 64.75629868 26.41299568 67.79785156 27.63964844 C70.16719062 28.5946772 72.53657381 29.54959651 74.90600586 30.50439453 C75.93189316 30.91786133 76.95778046 31.33132812 78.01475525 31.75732422 C89.9337358 36.55590537 101.86684097 41.31841607 113.79663086 46.09033203 C113.79663086 169.18033203 113.79663086 292.27033203 113.79663086 419.09033203 C93.33663086 427.34033203 72.87663086 435.59033203 51.79663086 444.09033203 C34.78771233 450.97236617 34.78771233 450.97236617 17.78100586 457.85986328 C16.38301758 458.4227002 14.9850293 458.98553711 13.54467773 459.56542969 C11.22487203 460.50229675 8.92526856 461.46547954 6.62670898 462.45507812 C5.73918945 462.8335791 4.85166992 463.21208008 3.93725586 463.60205078 C3.21570313 463.92004639 2.49415039 464.23804199 1.75073242 464.56567383 C-0.70918332 465.22613846 -1.80750828 464.94881677 -4.20336914 464.09033203 C-6.14910889 462.49862671 -6.14910889 462.49862671 -8.20239258 460.41601562 C-8.977099 459.63785492 -9.75180542 458.85969421 -10.54998779 458.05795288 C-11.37919739 457.21012238 -12.20840698 456.36229187 -13.06274414 455.48876953 C-13.92595276 454.6189444 -14.78916138 453.74911926 -15.67852783 452.85293579 C-18.44397406 450.06405463 -21.19910843 447.26525675 -23.95336914 444.46533203 C-26.69498662 441.68851616 -29.43876145 438.91388369 -32.18536377 436.14199829 C-33.89384683 434.41670703 -35.5992236 432.68833227 -37.30096436 430.95639038 C-40.82403889 427.38964807 -44.35296099 423.89875448 -48.1574707 420.63183594 C-53.13624432 416.35372087 -57.71048285 411.68848422 -62.32836914 407.02783203 C-63.28396284 406.06781829 -64.23986098 405.1081075 -65.19604492 404.14868164 C-68.70887506 400.6226273 -72.21617487 397.09108913 -75.72363281 393.55969238 C-78.70002431 390.56341995 -81.67856071 387.56930972 -84.65985107 384.57791138 C-86.03990047 383.19147863 -87.41684658 381.80195905 -88.79370117 380.41235352 C-92.50490954 376.68679859 -96.21295181 373.01733163 -100.20336914 369.59033203 C-105.16735803 365.32722206 -109.72528888 360.67354107 -114.32836914 356.02783203 C-115.28396284 355.06781829 -116.23986098 354.1081075 -117.19604492 353.14868164 C-120.70887506 349.6226273 -124.21617487 346.09108913 -127.72363281 342.55969238 C-130.70002431 339.56341995 -133.67856071 336.56930972 -136.65985107 333.57791138 C-138.03990047 332.19147863 -139.41684658 330.80195905 -140.79370117 329.41235352 C-145.15190358 325.03730345 -149.57067165 320.83378119 -154.25512695 316.81149292 C-157.87143939 313.61668708 -161.24217533 310.1734011 -164.64086914 306.75048828 C-165.40641113 305.98353134 -166.17195312 305.2165744 -166.96069336 304.42637634 C-169.37730111 302.00422322 -171.7903864 299.57859591 -174.20336914 297.15283203 C-175.852876 295.4983031 -177.50261343 293.84400401 -179.15258789 292.18994141 C-183.17218285 288.15939001 -187.18890083 284.12598931 -191.20336914 280.09033203 C-192.63668209 281.033275 -194.06832418 281.97875801 -195.49926758 282.92529297 C-196.29669373 283.45153259 -197.09411987 283.97777222 -197.91571045 284.5199585 C-200.96278775 286.61163833 -203.6695842 288.90634206 -206.45336914 291.34033203 C-212.3145716 296.39902055 -218.37433008 301.12864846 -224.53540039 305.81347656 C-227.42459422 308.02519842 -230.28253241 310.27645959 -233.14086914 312.52783203 C-233.72215576 312.98544922 -234.30344238 313.44306641 -234.90234375 313.91455078 C-236.08079663 314.84258446 -237.25910039 315.77080753 -238.43725586 316.69921875 C-241.35707962 318.9990744 -244.28038808 321.29449148 -247.20336914 323.59033203 C-248.37005275 324.50697713 -249.53671942 325.4236438 -250.70336914 326.34033203 C-257.70336914 331.84033203 -257.70336914 331.84033203 -259.453125 333.21508789 C-260.62067324 334.13248212 -261.78815363 335.0499627 -262.95556641 335.9675293 C-265.85819704 338.24877448 -268.76196188 340.52854417 -271.66821289 342.80517578 C-279.64618521 349.05802944 -287.57619481 355.36856034 -295.4831543 361.7109375 C-298.03392052 363.75632909 -300.58741893 365.79829216 -303.14086914 367.84033203 C-304.3300293 368.79166016 -304.3300293 368.79166016 -305.54321289 369.76220703 C-306.36499023 370.41962891 -306.36499023 370.41962891 -307.20336914 371.09033203 C-312.3832788 369.07335077 -317.29664028 366.63570042 -322.26586914 364.15283203 C-323.55460937 363.51764648 -323.55460937 363.51764648 -324.86938477 362.86962891 C-334.827768 357.90106901 -344.4249078 352.46848577 -354.20336914 347.09033203 C-354.20336914 271.52033203 -354.20336914 195.95033203 -354.20336914 118.09033203 C-328.21459205 103.91463544 -328.21459205 103.91463544 -320.07836914 99.84033203 C-319.1618457 99.36982422 -318.24532227 98.89931641 -317.30102539 98.41455078 C-316.4205957 97.97240234 -315.54016602 97.53025391 -314.63305664 97.07470703 C-313.87234863 96.69024414 -313.11164063 96.30578125 -312.32788086 95.90966797 C-310.20336914 95.09033203 -310.20336914 95.09033203 -306.20336914 95.09033203 C-304.55029297 96.07739258 -304.55029297 96.07739258 -302.91040039 97.47705078 C-302.28907227 97.99654297 -301.66774414 98.51603516 -301.02758789 99.05126953 C-300.3637207 99.62103516 -299.69985352 100.19080078 -299.01586914 100.77783203 C-297.57631405 101.98187167 -296.1348466 103.18362791 -294.69165039 104.38330078 C-293.94995605 105.00124512 -293.20826172 105.61918945 -292.4440918 106.25585938 C-288.93511391 109.12864864 -285.32309357 111.85935499 -281.70336914 114.59033203 C-275.43384627 119.33875757 -269.30254342 124.22690698 -263.22290039 129.21533203 C-258.45803921 133.10959972 -253.60791396 136.87395563 -248.70336914 140.59033203 C-243.11673343 144.82355691 -237.62216206 149.14426288 -232.20336914 153.59033203 C-226.07691757 158.61594274 -219.83891484 163.46855889 -213.52587891 168.25708008 C-206.31374396 173.7383696 -199.24949159 179.39804971 -192.20336914 185.09033203 C-186.90559617 180.6696938 -181.99336408 175.99995034 -177.14477539 171.09423828 C-176.39679184 170.34246811 -175.64880829 169.59069794 -174.87815857 168.81614685 C-171.70692819 165.62870962 -168.54170825 162.43532866 -165.37597656 159.24243164 C-163.05101389 156.8992659 -160.72296395 154.5591981 -158.39477539 152.21923828 C-157.34127647 151.15329185 -157.34127647 151.15329185 -156.26649475 150.06581116 C-153.03895618 146.82253703 -149.78187041 143.67965009 -146.31054688 140.69750977 C-141.39499133 136.45774426 -136.86333824 131.85614665 -132.29711914 127.24658203 C-130.88473982 125.82841553 -129.47235753 124.41025196 -128.05980682 122.99225616 C-125.60549413 120.52710072 -123.15452381 118.05862694 -120.70336914 115.59033203 C-117.77399711 112.64047572 -114.84400629 109.69125364 -111.91003418 106.74597168 C-110.09116301 104.91964774 -108.27454262 103.09107842 -106.46057129 101.2598877 C-102.80456745 97.58941162 -99.14826837 93.98010117 -95.21704102 90.60400391 C-90.24921148 86.33544919 -85.68601302 81.67814695 -81.07836914 77.02783203 C-80.12277544 76.06781829 -79.1668773 75.1081075 -78.21069336 74.14868164 C-75.20539364 71.13206834 -72.20407303 68.11151607 -69.20336914 65.09033203 C-65.72043903 61.58363052 -62.23580412 58.07865737 -58.74688721 54.57791138 C-57.36683781 53.19147863 -55.9898917 51.80195905 -54.61303711 50.41235352 C-50.25602205 46.03849539 -45.83469223 41.84783557 -41.15167236 37.82714844 C-37.49995268 34.57182011 -34.15160769 31.0166694 -30.75805664 27.49658203 C-29.17172355 25.87329984 -27.58445682 24.25092961 -25.99633789 22.62939453 C-23.52108877 20.09834985 -21.05170531 17.5626134 -18.59741211 15.01123047 C-16.20858516 12.5318566 -13.79827037 10.07522255 -11.38305664 7.62158203 C-10.65166473 6.85092407 -9.92027283 6.08026611 -9.16671753 5.28625488 C-4.02170031 0.11340821 -4.02170031 0.11340821 0 0 Z M-5.14086914 137.71533203 C-5.66302002 138.10922119 -6.1851709 138.50311035 -6.72314453 138.90893555 C-13.13940623 143.7688458 -19.47763692 148.73022385 -25.82446289 153.68017578 C-29.43945583 156.49857893 -33.06686758 159.29974234 -36.70336914 162.09033203 C-41.88652715 166.06932202 -47.04776776 170.07571121 -52.20336914 174.09033203 C-60.52889074 180.57260002 -68.88673492 187.01107304 -77.25805664 193.43408203 C-84.36984063 198.89649966 -91.4546975 204.3925469 -98.5300293 209.90209961 C-104.11904544 214.25234999 -109.72627959 218.57802026 -115.34399414 222.89111328 C-119.30977696 225.9412987 -123.25911144 229.01238416 -127.20336914 232.09033203 C-123.13801972 236.37931561 -118.70367186 239.94027436 -114.01586914 243.52783203 C-112.40380522 244.77121173 -110.79182856 246.01470459 -109.17993164 247.25830078 C-108.35654297 247.89171387 -107.5331543 248.52512695 -106.68481445 249.17773438 C-102.74176755 252.2168754 -98.81742652 255.27993939 -94.89086914 258.34033203 C-87.68187113 263.95016725 -80.45050768 269.52986768 -73.20336914 275.09033203 C-65.06380886 281.33551895 -56.95160796 287.61422972 -48.85693359 293.91748047 C-43.45962886 298.1184901 -38.0442397 302.29467689 -32.61743164 306.45751953 C-29.99864039 308.47161094 -27.39243847 310.50135755 -24.78930664 312.53564453 C-12.71131988 323.90384285 -12.71131988 323.90384285 0.79663086 331.09033203 C0.79663086 266.08033203 0.79663086 201.07033203 0.79663086 134.09033203 C-1.32787683 134.09033203 -3.57152998 136.5313313 -5.14086914 137.71533203 Z M-309.20336914 164.09033203 C-309.20336914 209.30033203 -309.20336914 254.51033203 -309.20336914 301.09033203 C-301.25813895 294.28013472 -293.47302404 287.44664805 -286.13305664 279.98876953 C-283.59357518 277.49041327 -280.90411781 275.19253792 -278.20336914 272.87158203 C-276.11999836 271.01607993 -274.16055707 269.07810102 -272.20336914 267.09033203 C-269.6434678 264.4905102 -267.03557374 262.02764805 -264.26586914 259.65283203 C-260.45652718 256.3802271 -256.95515805 252.85932766 -253.42993164 249.28564453 C-250.7668998 246.65998858 -247.97081308 244.23053998 -245.13305664 241.79736328 C-242.01390778 239.03811622 -239.10585692 236.07445228 -236.20336914 233.09033203 C-242.03660443 226.11890449 -248.21630433 219.90158861 -255.10180664 213.97314453 C-257.39002025 211.92310929 -259.54597496 209.77738111 -261.70336914 207.59033203 C-265.08578313 204.16150413 -268.58407356 200.96984685 -272.23852539 197.83642578 C-275.01898746 195.36551814 -277.59455132 192.70866263 -280.20336914 190.05908203 C-282.14227916 188.15046748 -284.14036465 186.36322652 -286.20336914 184.59033203 C-288.99233307 182.19356615 -291.62327699 179.71073812 -294.20336914 177.09033203 C-298.86993736 172.35933388 -303.66412731 167.78315992 -309.20336914 164.09033203 Z " fill="#5B2A95" transform="translate(376.203369140625,22.90966796875)"/>
</svg>
