<svg xmlns="http://www.w3.org/2000/svg" x="0px" y="0px"
width="36" height="36"
viewBox="0 0 172 172"
style=" fill:#000000;"><g fill="none" fill-rule="nonzero" stroke="none" stroke-width="1" stroke-linecap="butt" stroke-linejoin="miter" stroke-miterlimit="10" stroke-dasharray="" stroke-dashoffset="0" font-family="none" font-weight="none" font-size="none" text-anchor="none" style="mix-blend-mode: normal"><path d="M0,172v-172h172v172z" fill="none"></path><g><path d="M157.66667,39.81083v92.37833c0,4.55083 -2.83083,8.6 -7.095,10.105l-31.605,14.835l2.86667,-38.87917v-64.5l-2.86667,-38.87917l31.605,14.835c4.26417,1.505 7.095,5.55417 7.095,10.105z" fill="#29b6f6"></path><path d="M32.25,121.46067l89.58333,-67.71067v-34.56842c0,-4.29283 -5.3105,-6.2995 -8.15208,-3.08167l-96.99008,88.67317c-3.225,2.97417 -3.04225,8.12342 0.38342,10.86467c0,0 4.74433,4.41467 6.46075,5.64017c2.63733,1.88125 6.10242,2.09625 8.71467,0.18275z" fill="#0277bd"></path><path d="M32.25,50.53933l89.58333,67.71067v34.56842c0,4.29283 -5.3105,6.2995 -8.15208,3.08167l-96.99008,-88.67317c-3.225,-2.97417 -3.04225,-8.12342 0.38342,-10.86467c0,0 4.74433,-4.41467 6.46075,-5.64017c2.63733,-1.88125 6.10242,-2.09625 8.71467,-0.18275z" fill="#0288d1"></path></g></g></svg>
